<svg width="180" height="58" viewBox="0 0 180 58" fill="none" xmlns="http://www.w3.org/2000/svg">
<g clip-path="url(#clip0_3933_6523)">
<path d="M38.1644 19.0244H41.6812L47.3455 33.9492H44.1779L43.1543 31.1275H36.6948L35.692 33.9492H32.5244L38.1679 19.0244H38.1644ZM37.4694 28.897H42.3555L40.2496 23.0288L39.9004 21.8634L39.5338 23.0288L37.4694 28.897Z" fill="#003027"/>
<path d="M51.4596 22.5041V24.9385C52.1754 23.1403 53.3823 22.2793 55.0974 22.2793C56.9164 22.2793 58.1647 23.2821 58.6765 24.9178C59.4545 23.1784 60.7617 22.2793 62.501 22.2793C64.9528 22.2793 66.4051 24.0775 66.4051 26.8197V33.9535H63.4209V27.6565C63.4209 25.8168 62.9298 24.7725 61.232 24.7725C59.5341 24.7725 58.9428 26.0589 58.9428 28.1648V33.9501H55.9585V27.653C55.9585 25.8134 55.4674 24.7691 53.7696 24.7691C52.0717 24.7691 51.4804 26.0554 51.4804 28.1614V33.9466H48.4961V22.4972H51.4596V22.5041Z" fill="#003027"/>
<path d="M74.2135 22.2793C78.0968 22.2793 79.8362 24.9973 79.8362 27.9643V29.0674H71.1877C71.4332 30.7238 72.4948 31.6851 74.2757 31.6851C75.6036 31.6851 76.3401 31.194 77.0145 30.0079L79.5284 31.3358C78.4668 33.0545 76.8312 34.1576 74.3137 34.1576C70.3474 34.1576 68.3037 31.6851 68.3037 28.2893C68.3037 24.8936 70.5514 22.2793 74.2135 22.2793ZM71.2292 27.2277H76.9142C76.8312 25.8168 76.0773 24.7345 74.2169 24.7345C72.5605 24.7345 71.5197 25.6336 71.2327 27.2277H71.2292Z" fill="#003027"/>
<path d="M89.4621 22.6784L88.7255 25.4171C88.193 25.1301 87.6224 24.9883 86.9066 24.9883C85.5995 24.9883 84.7177 26.0499 84.7177 27.9726V33.9411H81.7334V22.4916H84.6969V25.0886C85.2087 23.2074 86.0663 22.3291 87.6812 22.3291C88.4385 22.3291 88.9883 22.4501 89.4586 22.6784H89.4621Z" fill="#003027"/>
<path d="M92.514 17.0557C93.6793 17.0557 94.3744 17.8337 94.3744 18.9576C94.3744 20.0814 93.6793 20.7972 92.514 20.7972C91.2864 20.7972 90.6328 20.0399 90.6328 18.9576C90.6328 17.8752 91.2864 17.0557 92.514 17.0557ZM93.9456 22.4951V33.9446H90.9406V22.4951H93.9456Z" fill="#003027"/>
<path d="M101.877 22.273C105.311 22.273 106.763 24.0124 107.375 26.5056L104.329 27.1592C104.104 25.7275 103.409 24.7455 101.794 24.7455C99.8504 24.7455 98.9721 26.1978 98.9721 28.2208C98.9721 30.2437 99.7501 31.6338 101.794 31.6338C103.429 31.6338 104.083 30.6517 104.329 29.1198L107.396 29.7319C106.842 32.3081 104.961 34.1478 101.794 34.1478C97.9692 34.1478 95.9463 31.6753 95.9463 28.2173C95.9463 24.7593 98.194 22.2695 101.877 22.2695V22.273Z" fill="#003027"/>
<path d="M110.041 28.6559C110.857 28.1233 111.963 27.819 114.19 27.3695C116.092 26.9822 116.438 26.6122 116.438 25.9379C116.438 25.2013 115.864 24.61 114.394 24.61C112.925 24.61 112.001 25.4261 111.593 26.7367L108.896 25.9586C109.857 23.4446 112.005 22.2793 114.54 22.2793C117.403 22.2793 119.284 23.6694 119.284 26.5914V30.5163C119.284 31.5779 119.592 31.8856 120.346 31.8856C120.653 31.8856 120.92 31.8027 121.144 31.7231V33.6458C120.736 33.912 120.041 34.1576 119.18 34.1576C117.341 34.1576 116.563 33.3415 116.462 31.5606C115.746 33.217 114.194 34.1576 112.25 34.1576C110.041 34.1576 108.633 33.096 108.633 31.2736C108.633 29.9665 109.207 29.2091 110.044 28.6559H110.041ZM116.521 28.1648C116.234 28.4933 115.622 28.7181 114.415 28.9809C112.413 29.4097 111.635 29.759 111.635 30.7376C111.635 31.5744 112.247 31.9652 113.412 31.9652C115.477 31.9652 116.48 30.1048 116.521 28.8564V28.1614V28.1648Z" fill="#003027"/>
<path d="M122.484 22.5041H125.448V24.9973C126.226 23.1576 127.595 22.2793 129.352 22.2793C131.866 22.2793 133.481 24.0775 133.481 26.8197V33.9535H130.497V27.6565C130.497 25.8168 129.781 24.7725 128.024 24.7725C126.267 24.7725 125.469 26.0589 125.469 28.1648V33.9501H122.484V22.5006V22.5041Z" fill="#003027"/>
<path d="M140.375 19.0244H147.429C151.029 19.0244 152.54 20.4975 152.54 22.849C152.54 24.6264 151.495 25.854 149.431 26.224C151.641 26.5318 152.969 27.7386 152.969 29.9033C152.969 32.7043 150.925 33.9526 147.346 33.9526H140.375V19.0279V19.0244ZM143.359 21.6214V25.3422H146.63C148.819 25.3422 149.677 24.5641 149.677 23.3988C149.677 22.2957 148.961 21.6214 146.793 21.6214H143.359ZM143.359 27.4862V31.3315H147.1C149.514 31.3315 150.064 30.3909 150.064 29.2878C150.064 28.1847 149.206 27.4896 146.976 27.4896H143.359V27.4862Z" fill="#003027"/>
<path d="M156.428 17.0557C157.593 17.0557 158.288 17.8337 158.288 18.9576C158.288 20.0814 157.593 20.7972 156.428 20.7972C155.2 20.7972 154.547 20.0399 154.547 18.9576C154.547 17.8752 155.2 17.0557 156.428 17.0557ZM157.856 22.4951V33.9446H154.851V22.4951H157.856Z" fill="#003027"/>
<path d="M168.202 22.6784L167.465 25.4171C166.933 25.1301 166.362 24.9883 165.646 24.9883C164.339 24.9883 163.457 26.0499 163.457 27.9726V33.9411H160.473V22.4916H163.437V25.0886C163.948 23.2074 164.806 22.3291 166.421 22.3291C167.178 22.3291 167.728 22.4501 168.198 22.6784H168.202Z" fill="#003027"/>
<path d="M173.426 22.3718C175.203 22.3718 176.348 23.0669 177.026 24.5988V17.6689H180.01V33.9423H177.046V31.6324C176.331 33.185 175.082 34.0668 173.222 34.0668C170.504 34.0668 168.398 32.1234 168.398 28.2816C168.398 24.4397 170.891 22.3718 173.426 22.3718ZM174.346 24.744C172.323 24.744 171.441 26.1964 171.441 28.2193C171.441 30.2423 172.219 31.6324 174.346 31.6324C176.472 31.6324 177.25 30.2423 177.25 28.2193C177.25 26.1964 176.434 24.744 174.346 24.744Z" fill="#003027"/>
<path d="M52.8853 47.1509C52.8853 43.7378 55.1122 41.2031 58.833 41.2031C62.5539 41.2031 64.7808 43.8001 64.7808 47.1509C64.7808 50.5017 62.5124 53.0814 58.833 53.0814C55.1537 53.0814 52.8853 50.6089 52.8853 47.1509ZM61.7378 47.1509C61.7378 45.0865 60.9217 43.6756 58.833 43.6756C56.7444 43.6756 55.9283 45.128 55.9283 47.1509C55.9283 49.1738 56.7064 50.564 58.833 50.564C60.9597 50.564 61.7378 49.1738 61.7378 47.1509Z" fill="#003027"/>
<path d="M66.4253 41.4279H69.3888V43.9211C70.1669 42.0815 71.5362 41.2031 73.2929 41.2031C75.8069 41.2031 77.4218 43.0013 77.4218 45.7435V52.8774H74.4375V46.5803C74.4375 44.7407 73.7217 43.6963 71.965 43.6963C70.2084 43.6963 69.4096 44.9827 69.4096 47.0887V52.8739H66.4253V41.4244V41.4279Z" fill="#003027"/>
<path d="M80.9435 48.8712C81.8841 50.0573 82.9665 50.6486 84.5018 50.6486C85.892 50.6486 86.4452 50.0573 86.4452 49.3415C86.4452 48.2592 84.5226 48.2972 82.6622 47.9721C80.9228 47.6644 79.2699 47.0316 79.2699 44.8634C79.2699 42.8405 80.9055 41.1426 83.8898 41.1426C86.1997 41.1426 87.8561 41.7754 89.3085 43.411L87.0815 45.3752C86.2239 44.2306 85.2004 43.6566 83.7065 43.6566C82.2956 43.6566 81.8253 44.2686 81.8253 44.9049C81.8253 45.8455 83.3399 45.9285 84.9929 46.174C86.9363 46.461 89.063 46.952 89.063 49.3623C89.063 51.6307 87.2648 53.1246 84.4223 53.1246C81.8876 53.1246 79.9649 52.3085 78.8203 50.8976L80.947 48.8747L80.9435 48.8712Z" fill="#003027"/>
<path d="M96.4019 41.2031C100.285 41.2031 102.025 43.9211 102.025 46.8881V47.9912H93.3762C93.6217 49.6476 94.6833 50.6089 96.4642 50.6089C97.7921 50.6089 98.5286 50.1179 99.2029 48.9318L101.717 50.2597C100.655 51.9783 99.0196 53.0814 96.5022 53.0814C92.5359 53.0814 90.4922 50.6089 90.4922 47.2131C90.4922 43.8174 92.7399 41.2031 96.4019 41.2031ZM93.4177 46.1515H99.1026C99.0196 44.7407 98.2658 43.6583 96.4054 43.6583C94.749 43.6583 93.7081 44.5574 93.4211 46.1515H93.4177Z" fill="#003027"/>
<path d="M111.651 41.6129L110.914 44.3517C110.381 44.0647 109.811 43.9229 109.095 43.9229C107.788 43.9229 106.906 44.9845 106.906 46.9071V52.8757H103.922V41.4262H106.885V44.0232C107.397 42.142 108.255 41.2637 109.87 41.2637C110.627 41.2637 111.177 41.3847 111.647 41.6129H111.651Z" fill="#003027"/>
<path d="M116.297 52.8831L111.777 41.4336H114.865L117.442 48.5294L117.933 50.2066L118.444 48.5294L121.142 41.4336H124.126L119.465 52.8831H116.297Z" fill="#003027"/>
<path d="M125.76 47.5797C126.577 47.0472 127.683 46.7429 129.91 46.2933C131.812 45.906 132.158 45.536 132.158 44.8617C132.158 44.1251 131.584 43.5338 130.114 43.5338C128.644 43.5338 127.721 44.3499 127.313 45.6605L124.616 44.8824C125.577 42.3685 127.725 41.2031 130.259 41.2031C133.123 41.2031 135.004 42.5932 135.004 45.5153V49.4401C135.004 50.5017 135.311 50.8095 136.065 50.8095C136.373 50.8095 136.639 50.7265 136.864 50.6469V52.5696C136.456 52.8359 135.761 53.0814 134.9 53.0814C133.06 53.0814 132.282 52.2653 132.182 50.4844C131.466 52.1408 129.914 53.0814 127.97 53.0814C125.76 53.0814 124.353 52.0198 124.353 50.1974C124.353 48.8903 124.927 48.133 125.764 47.5797H125.76ZM132.241 47.0921C131.954 47.4206 131.342 47.6454 130.135 47.9082C128.133 48.337 127.355 48.6863 127.355 49.6649C127.355 50.5017 127.967 50.8925 129.132 50.8925C131.196 50.8925 132.199 49.0321 132.241 47.7837V47.0887V47.0921Z" fill="#003027"/>
<path d="M138.215 41.4279H141.178V43.9211C141.956 42.0815 143.326 41.2031 145.082 41.2031C147.596 41.2031 149.211 43.0013 149.211 45.7435V52.8774H146.227V46.5803C146.227 44.7407 145.511 43.6963 143.755 43.6963C141.998 43.6963 141.199 44.9827 141.199 47.0887V52.8739H138.215V41.4244V41.4279Z" fill="#003027"/>
<path d="M165.597 41.4336L168.481 48.5294L168.848 49.7363L169.235 48.5294L171.994 41.4336H174.999L168.415 57.2989H165.307L167.288 52.7586L162.523 41.4336H165.59H165.597Z" fill="#003027"/>
<path d="M48.803 47.1746C48.3742 48.9935 47.2226 50.3421 44.8677 50.3421C41.8627 50.3421 40.6144 48.2777 40.6144 45.4145C40.6144 42.5512 42.167 40.5075 44.9265 40.5075C47.2434 40.5075 48.3569 41.7835 48.7995 43.6647L51.8287 42.8106C50.9953 39.7502 48.7165 37.748 44.9473 37.748C40.2029 37.748 37.5264 41.2441 37.5264 45.4145C37.5264 49.5848 39.6323 53.0809 44.8643 53.0809C48.8825 53.0809 51.0368 50.8816 51.8564 47.7382L48.7995 47.1711L48.803 47.1746Z" fill="#003027"/>
<path d="M48.9405 46.457C48.9405 46.457 48.9405 46.4747 48.937 46.4817C48.937 46.4747 48.9405 46.4641 48.9441 46.457H48.9405Z" fill="#003027"/>
<path d="M159.456 48.3681C159.172 49.7202 158.501 50.5674 156.98 50.5674C154.936 50.5674 154.158 49.198 154.158 47.1544C154.158 45.1107 155.036 43.6791 156.98 43.6791C158.522 43.6791 159.224 44.5712 159.48 45.8956L162.506 45.2317C161.863 42.8491 160.4 41.2031 157.063 41.2031C153.384 41.2031 151.132 43.7378 151.132 47.1509C151.132 50.564 153.155 53.0814 156.98 53.0814C160.013 53.0814 161.863 51.3939 162.499 48.994L159.456 48.3681Z" fill="#003027"/>
<path d="M21.9481 13.4586C21.9481 13.4586 22.6846 9.28821 17.7258 5.13169C13.7007 1.75667 10.7441 0 10.7441 0C10.7441 0 10.2046 6.53218 12.7878 8.9355C15.3709 11.3388 19.5828 12.435 19.5828 12.435C19.5828 12.435 17.3731 10.1908 15.7133 8.18165C14.8245 7.10275 13.6004 5.19047 13.6004 5.19047L13.8148 5.03832C13.8148 5.03832 15.0147 6.41115 16.3184 7.87043C18.3794 10.1804 21.9446 13.4551 21.9446 13.4551L21.9481 13.4586Z" fill="#81BB7B"/>
<path d="M42.0633 6.82031C42.0633 6.82031 35.3478 7.90267 33.4425 8.01333C31.2743 8.14127 29.9049 6.19095 27.6192 7.03125C25.4441 7.82659 24.2407 12.1249 23.1687 14.3173C23.0546 14.5524 22.816 14.7426 22.605 14.8014C22.3768 14.8636 21.9618 14.7945 21.6575 14.6665C19.6484 13.8228 18.8323 13.4493 13.4482 11.3607C7.07164 8.89166 0 8.21389 0 8.21389C0 8.21389 3.46147 12.9479 7.72175 16.1466C11.204 18.7608 13.7698 20.3238 15.9414 21.4477C16.1247 21.5411 16.595 21.8177 16.595 21.9387C16.595 22.0598 16.2215 22.3744 16.0659 22.4989C14.9801 23.3634 14.4614 23.8337 11.5947 25.8567C9.13262 27.596 4.06317 30.3037 2.06098 31.2027L2.06789 31.3929C12.0616 30.933 19.3372 29.4703 23.7185 26.0226C27.3598 23.1525 28.6635 20.7319 29.2444 16.6238C29.5003 14.8256 30.2403 12.6886 31.2708 11.1982C32.118 9.97402 33.5151 9.09223 35.7974 8.58736C38.8439 7.90959 42.1013 7.07966 42.1013 7.07966L42.0633 6.82377V6.82031ZM29.2375 10.0916C28.8744 10.0916 28.5805 9.79766 28.5805 9.43457C28.5805 9.07148 28.8744 8.77755 29.2375 8.77755C29.6006 8.77755 29.8945 9.07148 29.8945 9.43457C29.8945 9.79766 29.6006 10.0916 29.2375 10.0916Z" fill="#003027"/>
</g>
<defs>
<clipPath id="clip0_3933_6523">
<rect width="180" height="57.2958" fill="white"/>
</clipPath>
</defs>
</svg>
