<svg width="156" height="53" viewBox="0 0 156 53" fill="none" xmlns="http://www.w3.org/2000/svg">
<path d="M16.2014 39.7596C13.508 39.7596 11.3157 37.5256 11.3157 34.7811C11.3157 32.0365 13.508 29.8025 16.2014 29.8025C18.8947 29.8025 21.087 32.0365 21.087 34.7811C21.0661 37.5256 18.8947 39.7596 16.2014 39.7596ZM2.17085 27.2494C2.17085 24.5048 4.36312 22.2709 7.05648 22.2709C9.74984 22.2709 11.9421 24.5048 11.9421 27.2494C11.9421 29.994 9.74984 32.228 7.05648 32.228C4.36312 32.228 2.17085 29.994 2.17085 27.2494ZM2.25436 7.20761C2.25436 4.46303 4.44663 2.22907 7.13999 2.22907C9.83335 2.22907 12.0256 4.46303 12.0256 7.20761C12.0256 9.95219 9.83335 12.1862 7.13999 12.1862C4.44663 12.1862 2.25436 9.95219 2.25436 7.20761ZM18.4354 17.2072C18.4354 19.9518 16.2431 22.1858 13.5498 22.1858C10.8564 22.1858 8.66414 19.9518 8.66414 17.2072C8.66414 14.4627 10.8564 12.2287 13.5498 12.2287C16.2431 12.2287 18.4354 14.4627 18.4354 17.2072ZM16.2014 27.8026C15.3662 27.8026 14.5728 27.9728 13.8212 28.2494C13.863 27.909 13.9047 27.5898 13.9047 27.2494C13.9047 26.1431 13.6333 25.1006 13.1948 24.1644C13.3201 24.1644 13.4454 24.1857 13.5707 24.1857C17.3497 24.1857 20.398 21.0582 20.398 17.2285C20.398 13.3989 17.3288 10.2501 13.5498 10.2501C13.4663 10.2501 13.3827 10.2713 13.2784 10.2713C13.7168 9.35647 13.9674 8.31395 13.9674 7.22889C13.9674 3.37797 10.8982 0.271698 7.13999 0.271698C3.38182 0.271698 0.312636 3.37797 0.312636 7.20761C0.312636 11.0373 3.38182 14.1648 7.16087 14.1648C7.24439 14.1648 7.3279 14.1435 7.4323 14.1435C6.99384 15.0584 6.7433 16.1009 6.7433 17.186C6.7433 18.271 7.01472 19.3561 7.45318 20.271C7.3279 20.271 7.20263 20.2497 7.07736 20.2497C3.2983 20.2497 0.25 23.3772 0.25 27.2069C0.25 31.0365 3.31918 34.1641 7.07736 34.1641C7.91251 34.1641 8.7059 33.9939 9.45754 33.7173C9.41578 34.0577 9.37402 34.3768 9.37402 34.7172C9.37402 38.5682 12.4432 41.6744 16.2014 41.6744C19.9596 41.6744 23.0287 38.5469 23.0287 34.7172C23.0287 30.9301 19.9596 27.8026 16.2014 27.8026Z" fill="url(#paint0_linear_4555_10853)"/>
<path d="M152.847 45.574V43.1385H153.425L154.052 44.6277L154.685 43.1385H155.25V45.574H154.76V44.0432L154.229 45.2679H153.854L153.33 44.0362V45.574H152.847ZM151.342 45.574V43.57H150.695V43.1385H152.493V43.57H151.839V45.574H151.342Z" fill="#1D1752"/>
<path d="M147.406 52.1453C146.854 52.1453 146.366 52.0177 145.942 51.7626C145.518 51.5074 145.186 51.1518 144.944 50.6956C144.709 50.2394 144.592 49.7175 144.592 49.1299C144.592 48.5191 144.709 47.9895 144.944 47.5411C145.178 47.0926 145.507 46.7447 145.931 46.4973C146.362 46.2421 146.857 46.1145 147.417 46.1145C147.962 46.1145 148.439 46.2383 148.847 46.4857C149.256 46.7254 149.573 47.054 149.8 47.4715C150.035 47.889 150.152 48.3645 150.152 48.898C150.152 49.0062 150.148 49.099 150.141 49.1763C150.141 49.2536 150.133 49.3464 150.118 49.4547H145.795C145.817 49.7794 145.897 50.0693 146.033 50.3245C146.169 50.5719 146.354 50.769 146.589 50.916C146.823 51.0551 147.092 51.1247 147.395 51.1247C147.72 51.1247 147.996 51.0513 148.223 50.9044C148.457 50.7497 148.631 50.5332 148.745 50.2549H149.993C149.895 50.6028 149.728 50.9198 149.494 51.2059C149.267 51.492 148.979 51.72 148.631 51.8901C148.283 52.0602 147.875 52.1453 147.406 52.1453ZM145.806 48.5848H148.926C148.911 48.1364 148.756 47.7846 148.461 47.5295C148.166 47.2666 147.807 47.1351 147.383 47.1351C147.005 47.1351 146.661 47.255 146.351 47.4947C146.04 47.7343 145.859 48.0977 145.806 48.5848Z" fill="#1D1752"/>
<path d="M142.977 52.0061C142.418 52.0061 141.986 51.8669 141.684 51.5886C141.381 51.3102 141.23 50.8541 141.23 50.2201V47.2859H140.379V46.2537H141.23V44.862H142.433V46.2537H143.863V47.2859H142.433V50.2201C142.433 50.5139 142.497 50.711 142.626 50.8115C142.754 50.9121 142.955 50.9623 143.227 50.9623H143.863V52.0061H142.977Z" fill="#1D1752"/>
<path d="M136.448 52.1453C135.987 52.1453 135.59 52.0486 135.257 51.8553C134.924 51.6543 134.667 51.3682 134.485 50.9971C134.304 50.6182 134.213 50.1659 134.213 49.6402V46.2537H135.404V49.4778C135.404 49.9881 135.518 50.3863 135.745 50.6724C135.979 50.9584 136.32 51.1015 136.766 51.1015C137.227 51.1015 137.591 50.9468 137.855 50.6376C138.12 50.3206 138.253 49.8876 138.253 49.3386V46.2537H139.455V52.0061H138.298L138.275 51.1479C138.086 51.4649 137.829 51.7123 137.504 51.8901C137.186 52.0602 136.834 52.1453 136.448 52.1453Z" fill="#1D1752"/>
<path d="M132.35 52.0061C131.791 52.0061 131.359 51.8669 131.057 51.5886C130.754 51.3102 130.603 50.8541 130.603 50.2201V47.2859H129.752V46.2537H130.603V44.862H131.806V46.2537H133.236V47.2859H131.806V50.2201C131.806 50.5139 131.87 50.711 131.999 50.8115C132.127 50.9121 132.328 50.9623 132.6 50.9623H133.236V52.0061H132.35Z" fill="#1D1752"/>
<path d="M128.158 45.2447C127.938 45.2447 127.749 45.1674 127.59 45.0127C127.439 44.8504 127.363 44.6532 127.363 44.4213C127.363 44.197 127.439 44.0076 127.59 43.853C127.749 43.6984 127.938 43.621 128.158 43.621C128.385 43.621 128.574 43.6984 128.725 43.853C128.884 44.0076 128.963 44.197 128.963 44.4213C128.963 44.6532 128.884 44.8504 128.725 45.0127C128.574 45.1674 128.385 45.2447 128.158 45.2447ZM127.556 52.0061V46.2537H128.759V52.0061H127.556Z" fill="#1D1752"/>
<path d="M125.515 52.0061C124.955 52.0061 124.524 51.8669 124.221 51.5886C123.918 51.3102 123.767 50.8541 123.767 50.2201V47.2859H122.916V46.2537H123.767V44.862H124.97V46.2537H126.4V47.2859H124.97V50.2201C124.97 50.5139 125.034 50.711 125.163 50.8115C125.291 50.9121 125.492 50.9623 125.764 50.9623H126.4V52.0061H125.515Z" fill="#1D1752"/>
<path d="M120.147 52.1453C119.708 52.1453 119.307 52.068 118.944 51.9133C118.581 51.751 118.286 51.5229 118.059 51.2291C117.832 50.9353 117.7 50.5912 117.662 50.1969H118.876C118.929 50.4752 119.069 50.7033 119.296 50.8812C119.523 51.059 119.807 51.1479 120.147 51.1479C120.45 51.1479 120.696 51.0822 120.885 50.9507C121.074 50.8116 121.168 50.6299 121.168 50.4057C121.168 50.2124 121.104 50.0616 120.976 49.9534C120.854 49.8451 120.696 49.7601 120.499 49.6982C120.31 49.6363 120.102 49.5822 119.875 49.5358C119.527 49.4508 119.198 49.3464 118.888 49.2227C118.585 49.099 118.339 48.9289 118.15 48.7124C117.961 48.4959 117.866 48.206 117.866 47.8426C117.866 47.4869 117.957 47.1815 118.139 46.9264C118.328 46.6635 118.585 46.4625 118.91 46.3233C119.236 46.1841 119.602 46.1145 120.011 46.1145C120.624 46.1145 121.134 46.273 121.543 46.59C121.951 46.8993 122.178 47.3555 122.224 47.9586H121.066C121.036 47.688 120.923 47.4792 120.726 47.3323C120.537 47.1854 120.291 47.1119 119.988 47.1119C119.708 47.1119 119.481 47.1699 119.307 47.2859C119.133 47.3941 119.046 47.5604 119.046 47.7846C119.046 47.9392 119.107 48.0707 119.228 48.1789C119.349 48.2794 119.504 48.3645 119.693 48.4341C119.89 48.4959 120.094 48.5539 120.306 48.608C120.692 48.6931 121.036 48.7975 121.339 48.9212C121.641 49.0449 121.883 49.2188 122.065 49.4431C122.246 49.6673 122.341 49.9765 122.349 50.3709C122.349 50.7265 122.25 51.0397 122.054 51.3103C121.864 51.5731 121.603 51.778 121.271 51.9249C120.945 52.0718 120.571 52.1453 120.147 52.1453Z" fill="#1D1752"/>
<path d="M111.465 52.0061V46.2537H112.622L112.645 47.1003C112.834 46.7833 113.095 46.5398 113.428 46.3697C113.768 46.1996 114.128 46.1145 114.506 46.1145C115.164 46.1145 115.697 46.3272 116.106 46.7524C116.514 47.1699 116.719 47.7962 116.719 48.6312V52.0061H115.516V48.782C115.516 48.264 115.402 47.8658 115.175 47.5874C114.948 47.3014 114.608 47.1583 114.154 47.1583C113.708 47.1583 113.348 47.3168 113.076 47.6338C112.804 47.9431 112.668 48.3722 112.668 48.9212V52.0061H111.465Z" fill="#1D1752"/>
<path d="M108.828 52.0061V43.8878H110.031V52.0061H108.828Z" fill="#1D1752"/>
<path d="M149.863 38.6843V30.566H151.066V33.7554C151.255 33.4461 151.52 33.2103 151.86 33.0479C152.201 32.8778 152.556 32.7928 152.927 32.7928C153.578 32.7928 154.103 33.0054 154.504 33.4306C154.913 33.8481 155.117 34.4744 155.117 35.3094V38.6843H153.926V35.4602C153.926 34.9422 153.812 34.544 153.585 34.2657C153.358 33.9796 153.022 33.8365 152.575 33.8365C152.121 33.8365 151.755 33.995 151.475 34.312C151.202 34.6213 151.066 35.0504 151.066 35.5994V38.6843H149.863Z" fill="#1D1752"/>
<path d="M146.165 38.8234C145.613 38.8234 145.125 38.6959 144.702 38.4407C144.278 38.1856 143.945 37.8338 143.703 37.3853C143.461 36.9292 143.34 36.4034 143.34 35.8081C143.34 35.2204 143.457 34.6986 143.692 34.2424C143.926 33.7862 144.255 33.4306 144.679 33.1754C145.102 32.9203 145.598 32.7927 146.165 32.7927C146.839 32.7927 147.406 32.9705 147.867 33.3262C148.336 33.6741 148.643 34.1651 148.787 34.7991H147.516C147.448 34.513 147.289 34.281 147.039 34.1032C146.797 33.9254 146.502 33.8365 146.154 33.8365C145.798 33.8365 145.503 33.9293 145.269 34.1148C145.034 34.2926 144.857 34.5323 144.736 34.8339C144.622 35.1277 144.565 35.4524 144.565 35.8081C144.565 36.1792 144.626 36.5155 144.747 36.817C144.876 37.1109 145.057 37.3467 145.292 37.5245C145.534 37.6946 145.821 37.7797 146.154 37.7797C146.494 37.7797 146.786 37.6985 147.028 37.5361C147.27 37.366 147.432 37.1225 147.516 36.8055H148.787C148.696 37.2152 148.529 37.5709 148.287 37.8724C148.045 38.174 147.743 38.4098 147.379 38.5799C147.016 38.7423 146.612 38.8234 146.165 38.8234Z" fill="#1D1752"/>
<path d="M139.699 38.6843V32.9319H140.857L140.891 33.9061C141.08 33.5581 141.337 33.2875 141.662 33.0942C141.995 32.8932 142.385 32.7927 142.831 32.7927V34.08H142.502C141.965 34.08 141.564 34.2231 141.299 34.5091C141.034 34.7875 140.902 35.2166 140.902 35.7965V38.6843H139.699Z" fill="#1D1752"/>
<path d="M135.11 38.8234C134.747 38.8234 134.414 38.7577 134.112 38.6263C133.809 38.4871 133.567 38.2861 133.386 38.0232C133.204 37.7603 133.113 37.4433 133.113 37.0722C133.113 36.6315 133.219 36.2797 133.431 36.0168C133.65 35.7462 133.942 35.549 134.305 35.4253C134.675 35.2939 135.08 35.2282 135.519 35.2282H136.949C136.949 34.8957 136.896 34.629 136.79 34.4279C136.684 34.2192 136.54 34.0684 136.359 33.9756C136.177 33.8751 135.965 33.8249 135.723 33.8249C135.405 33.8249 135.126 33.9022 134.883 34.0568C134.649 34.2037 134.501 34.4395 134.441 34.7643H133.227C133.265 34.3468 133.401 33.9911 133.635 33.6973C133.877 33.4035 134.184 33.1793 134.554 33.0246C134.925 32.87 135.318 32.7927 135.735 32.7927C136.279 32.7927 136.729 32.8971 137.085 33.1058C137.448 33.3068 137.717 33.5891 137.89 33.9524C138.072 34.3158 138.163 34.7295 138.163 35.1934V36.9562C138.17 37.1804 138.216 37.3467 138.299 37.4549C138.39 37.5554 138.549 37.6134 138.776 37.6289V38.6843C138.473 38.6843 138.208 38.6495 137.981 38.5799C137.762 38.5103 137.58 38.4059 137.437 38.2668C137.293 38.1198 137.179 37.9343 137.096 37.7101C136.915 38.0193 136.65 38.2822 136.302 38.4987C135.954 38.7152 135.557 38.8234 135.11 38.8234ZM135.394 37.8144C135.704 37.8144 135.977 37.7371 136.211 37.5825C136.446 37.4201 136.627 37.2114 136.756 36.9562C136.884 36.6933 136.949 36.4111 136.949 36.1096V36.0864H135.61C135.39 36.0864 135.182 36.1135 134.986 36.1676C134.796 36.2217 134.641 36.3145 134.52 36.4459C134.407 36.5696 134.35 36.7436 134.35 36.9678C134.35 37.2616 134.452 37.4781 134.657 37.6173C134.861 37.7487 135.107 37.8144 135.394 37.8144Z" fill="#1D1752"/>
<path d="M129.556 38.8234C129.004 38.8234 128.516 38.6959 128.093 38.4407C127.669 38.1856 127.336 37.8299 127.094 37.3737C126.859 36.9176 126.742 36.3957 126.742 35.8081C126.742 35.1973 126.859 34.6676 127.094 34.2192C127.328 33.7707 127.658 33.4228 128.081 33.1754C128.512 32.9203 129.008 32.7927 129.568 32.7927C130.112 32.7927 130.589 32.9164 130.997 33.1638C131.406 33.4035 131.724 33.7321 131.951 34.1496C132.185 34.5671 132.302 35.0426 132.302 35.5761C132.302 35.6844 132.299 35.7771 132.291 35.8545C132.291 35.9318 132.283 36.0245 132.268 36.1328H127.945C127.968 36.4575 128.047 36.7475 128.183 37.0026C128.319 37.25 128.505 37.4472 128.739 37.5941C128.974 37.7333 129.242 37.8028 129.545 37.8028C129.87 37.8028 130.146 37.7294 130.373 37.5825C130.608 37.4279 130.782 37.2114 130.895 36.933H132.144C132.045 37.281 131.879 37.598 131.644 37.884C131.417 38.1701 131.13 38.3982 130.782 38.5683C130.434 38.7384 130.025 38.8234 129.556 38.8234ZM127.956 35.263H131.077C131.062 34.8145 130.907 34.4627 130.612 34.2076C130.317 33.9447 129.957 33.8133 129.534 33.8133C129.155 33.8133 128.811 33.9331 128.501 34.1728C128.191 34.4125 128.009 34.7759 127.956 35.263Z" fill="#1D1752"/>
<path d="M123.651 38.8234C123.212 38.8234 122.811 38.7461 122.448 38.5915C122.085 38.4291 121.79 38.201 121.563 37.9072C121.336 37.6134 121.204 37.2694 121.166 36.875H122.38C122.433 37.1534 122.573 37.3815 122.8 37.5593C123.027 37.7371 123.311 37.826 123.651 37.826C123.954 37.826 124.2 37.7603 124.389 37.6289C124.578 37.4897 124.672 37.308 124.672 37.0838C124.672 36.8905 124.608 36.7397 124.479 36.6315C124.358 36.5232 124.2 36.4382 124.003 36.3763C123.814 36.3145 123.606 36.2604 123.379 36.214C123.031 36.1289 122.702 36.0245 122.392 35.9008C122.089 35.7771 121.843 35.607 121.654 35.3905C121.465 35.1741 121.37 34.8841 121.37 34.5207C121.37 34.1651 121.461 33.8597 121.643 33.6045C121.832 33.3416 122.089 33.1406 122.414 33.0014C122.74 32.8623 123.106 32.7927 123.515 32.7927C124.128 32.7927 124.638 32.9512 125.047 33.2682C125.455 33.5775 125.682 34.0336 125.728 34.6367H124.57C124.54 34.3661 124.426 34.1573 124.23 34.0104C124.041 33.8635 123.795 33.7901 123.492 33.7901C123.212 33.7901 122.985 33.8481 122.811 33.964C122.637 34.0723 122.55 34.2385 122.55 34.4627C122.55 34.6174 122.611 34.7488 122.732 34.8571C122.853 34.9576 123.008 35.0426 123.197 35.1122C123.394 35.1741 123.598 35.232 123.81 35.2862C124.196 35.3712 124.54 35.4756 124.843 35.5993C125.145 35.723 125.387 35.897 125.569 36.1212C125.75 36.3454 125.845 36.6547 125.852 37.049C125.852 37.4047 125.754 37.7178 125.557 37.9884C125.368 38.2513 125.107 38.4562 124.774 38.6031C124.449 38.75 124.075 38.8234 123.651 38.8234Z" fill="#1D1752"/>
<path d="M117.664 38.8234C117.112 38.8234 116.624 38.6959 116.2 38.4407C115.776 38.1856 115.443 37.8299 115.201 37.3737C114.967 36.9176 114.85 36.3957 114.85 35.8081C114.85 35.1973 114.967 34.6676 115.201 34.2192C115.436 33.7707 115.765 33.4228 116.189 33.1754C116.62 32.9203 117.115 32.7927 117.675 32.7927C118.22 32.7927 118.696 32.9164 119.105 33.1638C119.513 33.4035 119.831 33.7321 120.058 34.1496C120.293 34.5671 120.41 35.0426 120.41 35.5761C120.41 35.6844 120.406 35.7771 120.398 35.8545C120.398 35.9318 120.391 36.0245 120.376 36.1328H116.052C116.075 36.4575 116.155 36.7475 116.291 37.0026C116.427 37.25 116.612 37.4472 116.847 37.5941C117.081 37.7333 117.35 37.8028 117.652 37.8028C117.978 37.8028 118.254 37.7294 118.481 37.5825C118.715 37.4279 118.889 37.2114 119.003 36.933H120.251C120.153 37.281 119.986 37.598 119.752 37.884C119.525 38.1701 119.237 38.3982 118.889 38.5683C118.541 38.7384 118.133 38.8234 117.664 38.8234ZM116.064 35.263H119.184C119.169 34.8145 119.014 34.4627 118.719 34.2076C118.424 33.9447 118.065 33.8133 117.641 33.8133C117.263 33.8133 116.919 33.9331 116.608 34.1728C116.298 34.4125 116.117 34.7759 116.064 35.263Z" fill="#1D1752"/>
<path d="M108.828 38.6843V30.566H111.381C111.941 30.566 112.418 30.6549 112.811 30.8328C113.212 31.0029 113.522 31.258 113.742 31.5982C113.961 31.9384 114.071 32.3598 114.071 32.8623C114.071 33.4732 113.915 33.9487 113.605 34.2889C113.295 34.6213 112.872 34.8455 112.334 34.9615L114.581 38.6843H113.129L111.132 35.1703H110.031V38.6843H108.828ZM110.031 34.1265H111.359C111.737 34.1265 112.036 34.0762 112.255 33.9757C112.474 33.8752 112.626 33.7322 112.709 33.5466C112.8 33.3533 112.845 33.1252 112.845 32.8623C112.845 32.5995 112.8 32.3752 112.709 32.1897C112.626 31.9964 112.474 31.8495 112.255 31.749C112.036 31.6485 111.737 31.5982 111.359 31.5982H110.031V34.1265Z" fill="#1D1752"/>
<path d="M142.35 25.3625V19.6101H143.507L143.541 20.5843C143.73 20.2364 143.987 19.9657 144.313 19.7725C144.646 19.5714 145.035 19.4709 145.481 19.4709V20.7582H145.152C144.615 20.7582 144.214 20.9013 143.95 21.1874C143.685 21.4657 143.552 21.8948 143.552 22.4747V25.3625H142.35Z" fill="#1D1752"/>
<path d="M138.597 25.5017C138.045 25.5017 137.557 25.3741 137.134 25.1189C136.71 24.8638 136.377 24.5081 136.135 24.052C135.9 23.5958 135.783 23.0739 135.783 22.4863C135.783 21.8755 135.9 21.3459 136.135 20.8974C136.369 20.449 136.699 20.1011 137.122 19.8536C137.553 19.5985 138.049 19.4709 138.609 19.4709C139.153 19.4709 139.63 19.5946 140.038 19.842C140.447 20.0817 140.765 20.4103 140.992 20.8278C141.226 21.2453 141.343 21.7208 141.343 22.2543C141.343 22.3626 141.34 22.4554 141.332 22.5327C141.332 22.61 141.324 22.7028 141.309 22.811H136.986C137.009 23.1358 137.088 23.4257 137.224 23.6808C137.36 23.9283 137.546 24.1254 137.78 24.2723C138.015 24.4115 138.283 24.4811 138.586 24.4811C138.911 24.4811 139.187 24.4076 139.414 24.2607C139.649 24.1061 139.823 23.8896 139.936 23.6113H141.185C141.086 23.9592 140.92 24.2762 140.685 24.5623C140.458 24.8483 140.171 25.0764 139.823 25.2465C139.475 25.4166 139.066 25.5017 138.597 25.5017ZM136.997 21.9412H140.118C140.103 21.4928 139.948 21.141 139.653 20.8858C139.358 20.6229 138.998 20.4915 138.575 20.4915C138.196 20.4915 137.852 20.6113 137.542 20.851C137.232 21.0907 137.05 21.4541 136.997 21.9412Z" fill="#1D1752"/>
<path d="M132.292 25.5017C131.74 25.5017 131.252 25.3741 130.828 25.1189C130.405 24.8638 130.072 24.512 129.83 24.0636C129.588 23.6074 129.467 23.0816 129.467 22.4863C129.467 21.8987 129.584 21.3768 129.819 20.9206C130.053 20.4644 130.382 20.1088 130.806 19.8536C131.229 19.5985 131.725 19.4709 132.292 19.4709C132.966 19.4709 133.533 19.6487 133.994 20.0044C134.463 20.3523 134.77 20.8433 134.914 21.4773H133.643C133.575 21.1912 133.416 20.9593 133.166 20.7814C132.924 20.6036 132.629 20.5147 132.281 20.5147C131.925 20.5147 131.63 20.6075 131.396 20.793C131.161 20.9709 130.984 21.2106 130.863 21.5121C130.749 21.8059 130.692 22.1306 130.692 22.4863C130.692 22.8574 130.753 23.1937 130.874 23.4953C131.002 23.7891 131.184 24.0249 131.419 24.2027C131.661 24.3728 131.948 24.4579 132.281 24.4579C132.621 24.4579 132.913 24.3767 133.155 24.2143C133.397 24.0442 133.559 23.8007 133.643 23.4837H134.914C134.823 23.8935 134.656 24.2491 134.414 24.5507C134.172 24.8522 133.87 25.088 133.506 25.2581C133.143 25.4205 132.739 25.5017 132.292 25.5017Z" fill="#1D1752"/>
<path d="M123.223 25.3625V19.6101H124.38L124.403 20.4567C124.592 20.1397 124.853 19.8962 125.186 19.7261C125.526 19.556 125.885 19.4709 126.264 19.4709C126.922 19.4709 127.455 19.6835 127.864 20.1088C128.272 20.5263 128.476 21.1526 128.476 21.9876V25.3625H127.274V22.1384C127.274 21.6203 127.16 21.2222 126.933 20.9438C126.706 20.6577 126.366 20.5147 125.912 20.5147C125.466 20.5147 125.106 20.6732 124.834 20.9902C124.562 21.2995 124.425 21.7286 124.425 22.2775V25.3625H123.223Z" fill="#1D1752"/>
<path d="M118.632 25.5017C118.269 25.5017 117.936 25.4359 117.633 25.3045C117.331 25.1653 117.089 24.9643 116.907 24.7014C116.726 24.4386 116.635 24.1216 116.635 23.7504C116.635 23.3097 116.741 22.9579 116.952 22.695C117.172 22.4244 117.463 22.2273 117.826 22.1036C118.197 21.9721 118.602 21.9064 119.04 21.9064H120.47C120.47 21.5739 120.417 21.3072 120.311 21.1062C120.205 20.8974 120.062 20.7467 119.88 20.6539C119.699 20.5534 119.487 20.5031 119.245 20.5031C118.927 20.5031 118.647 20.5804 118.405 20.7351C118.17 20.882 118.023 21.1178 117.962 21.4425H116.748C116.786 21.025 116.922 20.6693 117.157 20.3755C117.399 20.0817 117.705 19.8575 118.076 19.7029C118.447 19.5482 118.84 19.4709 119.256 19.4709C119.801 19.4709 120.251 19.5753 120.606 19.7841C120.969 19.9851 121.238 20.2673 121.412 20.6307C121.594 20.9941 121.684 21.4077 121.684 21.8716V23.6345C121.692 23.8587 121.737 24.0249 121.82 24.1331C121.911 24.2337 122.07 24.2916 122.297 24.3071V25.3625C121.994 25.3625 121.73 25.3277 121.503 25.2581C121.283 25.1885 121.102 25.0842 120.958 24.945C120.814 24.7981 120.701 24.6125 120.618 24.3883C120.436 24.6976 120.171 24.9604 119.823 25.1769C119.475 25.3934 119.078 25.5017 118.632 25.5017ZM118.916 24.4927C119.226 24.4927 119.498 24.4154 119.733 24.2607C119.967 24.0984 120.149 23.8896 120.277 23.6345C120.406 23.3716 120.47 23.0894 120.47 22.7878V22.7646H119.131C118.912 22.7646 118.704 22.7917 118.507 22.8458C118.318 22.8999 118.163 22.9927 118.042 23.1242C117.928 23.2479 117.872 23.4218 117.872 23.646C117.872 23.9399 117.974 24.1563 118.178 24.2955C118.382 24.427 118.628 24.4927 118.916 24.4927Z" fill="#1D1752"/>
<path d="M112.371 25.5017C111.561 25.5017 110.869 25.32 110.294 24.9566C109.727 24.5855 109.292 24.0868 108.989 23.4605C108.694 22.8265 108.547 22.1075 108.547 21.3034C108.547 20.507 108.694 19.7918 108.989 19.1578C109.284 18.5238 109.716 18.0251 110.283 17.6617C110.858 17.2906 111.554 17.105 112.371 17.105C113.301 17.105 114.062 17.337 114.652 17.8009C115.242 18.2648 115.616 18.9143 115.775 19.7493H114.447C114.334 19.2777 114.103 18.9027 113.755 18.6243C113.407 18.346 112.942 18.2068 112.36 18.2068C111.807 18.2068 111.338 18.3383 110.953 18.6011C110.567 18.864 110.275 19.2274 110.079 19.6913C109.882 20.1552 109.784 20.6926 109.784 21.3034C109.784 21.9219 109.882 22.4631 110.079 22.927C110.283 23.3909 110.578 23.7543 110.964 24.0172C111.35 24.2724 111.815 24.3999 112.36 24.3999C112.942 24.3999 113.407 24.2685 113.755 24.0056C114.103 23.735 114.334 23.3716 114.447 22.9154H115.775C115.616 23.7273 115.242 24.3613 114.652 24.8174C114.062 25.2736 113.301 25.5017 112.371 25.5017Z" fill="#1D1752"/>
<path d="M94.1055 52.1368V17.634H99.2174V52.1368H94.1055Z" fill="#1D1752"/>
<path d="M65 52.1368V17.634H75.8509C78.23 17.634 80.2555 18.0119 81.9273 18.7676C83.6313 19.4905 84.9495 20.5749 85.8819 22.0208C86.8142 23.4666 87.2804 25.2574 87.2804 27.3933C87.2804 29.9893 86.6213 32.0101 85.3032 33.456C83.985 34.869 82.1845 35.8219 79.9018 36.3148L89.4506 52.1368H83.2777L74.7899 37.202H70.112V52.1368H65ZM70.112 32.7659H75.7544C77.3619 32.7659 78.6319 32.5523 79.5643 32.1252C80.4966 31.698 81.1396 31.0901 81.4933 30.3014C81.8791 29.4799 82.072 28.5106 82.072 27.3933C82.072 26.2761 81.8791 25.3232 81.4933 24.5345C81.1396 23.713 80.4966 23.0887 79.5643 22.6615C78.6319 22.2343 77.3619 22.0208 75.7544 22.0208H70.112V32.7659Z" fill="#1D1752"/>
<path d="M45.1018 52.7283C41.6617 52.7283 38.7199 51.9561 36.2764 50.4117C33.8651 48.8344 32.0165 46.715 30.7304 44.0533C29.4765 41.3588 28.8496 38.3028 28.8496 34.8854C28.8496 31.5008 29.4765 28.4613 30.7304 25.7668C31.9843 23.0723 33.8169 20.9528 36.2282 19.4084C38.6716 17.8312 41.6295 17.0425 45.1018 17.0425C49.0563 17.0425 52.2875 18.0283 54.7952 19.9999C57.303 21.9715 58.8944 24.7317 59.5696 28.2806H53.9271C53.4449 26.2761 52.4643 24.6824 50.9853 23.4995C49.5064 22.3165 47.5292 21.725 45.0536 21.725C42.7066 21.725 40.7132 22.2837 39.0735 23.4009C37.4338 24.5181 36.196 26.0625 35.3601 28.0341C34.5242 30.0057 34.1062 32.2895 34.1062 34.8854C34.1062 37.5142 34.5242 39.8144 35.3601 41.786C36.2282 43.7576 37.4821 45.302 39.1218 46.4192C40.7614 47.5036 42.7387 48.0458 45.0536 48.0458C47.5292 48.0458 49.5064 47.4872 50.9853 46.3699C52.4643 45.2198 53.4449 43.6754 53.9271 41.7367H59.5696C58.8944 45.187 57.303 47.8815 54.7952 49.8202C52.2875 51.7589 49.0563 52.7283 45.1018 52.7283Z" fill="#1D1752"/>
<defs>
<linearGradient id="paint0_linear_4555_10853" x1="0.25" y1="0.271698" x2="0.25" y2="41.7258" gradientUnits="userSpaceOnUse">
<stop stop-color="#754DC1"/>
<stop offset="1" stop-color="#FD411C"/>
</linearGradient>
</defs>
</svg>
