<svg xmlns="http://www.w3.org/2000/svg" width="200" height="203" viewBox="0 0 200 203" fill="none"><path d="M26.2931 128.776C25.3788 128.713 24.5345 128.49 23.7601 128.106C22.9857 127.722 22.3179 127.204 21.7551 126.547C21.1924 125.89 20.777 125.119 20.5162 124.237C20.3509 123.677 20.2651 123.121 20.2559 122.558C20.2467 121.994 20.3069 121.443 20.4379 120.911C20.5688 120.378 20.7761 119.861 21.0612 119.367C21.3463 118.873 21.7035 118.403 22.1341 117.962L23.928 119.371C23.3048 120.039 22.8955 120.719 22.699 121.405C22.5039 122.097 22.5057 122.805 22.723 123.53C22.8977 124.13 23.1743 124.626 23.5442 125.034C23.914 125.442 24.3573 125.754 24.8626 125.972C25.3736 126.19 25.9283 126.313 26.5323 126.341C27.1349 126.363 27.76 126.278 28.4006 126.082C29.0469 125.885 29.6189 125.605 30.1224 125.241C30.6259 124.876 31.0264 124.461 31.3253 123.999C31.6242 123.537 31.8202 123.024 31.9115 122.477C32.0015 121.924 31.9555 121.358 31.7849 120.776C31.5706 120.038 31.1848 119.414 30.6372 118.919C30.0883 118.42 29.3803 118.061 28.5132 117.843L29.2959 115.76C29.8706 115.866 30.4104 116.053 30.9152 116.319C31.4143 116.588 31.8716 116.908 32.2772 117.289C32.6828 117.669 33.0326 118.094 33.3236 118.575C33.6132 119.05 33.84 119.565 34.0012 120.108C34.2647 121.001 34.3397 121.887 34.2234 122.756C34.1071 123.625 33.8312 124.432 33.39 125.18C32.9488 125.927 32.3653 126.585 31.6397 127.153C30.914 127.722 30.0636 128.149 29.1014 128.437C28.1506 128.723 27.2187 128.837 26.3045 128.774L26.2931 128.776Z" fill="#F5B19A"></path><path d="M18.2045 113.109L17.9892 110.744L29.7326 109.538L29.4113 109.88L28.7659 102.76L30.9361 102.538L31.7662 111.722L18.2001 113.116L18.2045 113.109Z" fill="#F5B19A"></path><path d="M17.7971 93.9299L18.1039 91.2766L32.2354 87.4809L31.947 90.0107L28.6906 90.8369L29.0468 90.4384L28.3115 96.8408L28.0499 96.4063L31.0466 97.829L30.7599 100.34L17.7958 93.9243L17.7971 93.9299ZM26.3785 96.0031L26.9721 90.8382L27.2738 91.1138L20.3277 92.9699L20.3548 92.7072L26.7277 95.8503L26.3785 96.0031Z" fill="#F5B19A"></path><path d="M22.5969 79.4795L22.3574 79.087L33.6064 82.5355L32.8715 84.7906L19.9028 80.814L21.6076 75.5783C21.8046 74.9695 22.0845 74.4293 22.4315 73.9676C22.7843 73.5044 23.1912 73.1407 23.6623 72.8682C24.1277 72.597 24.6486 72.431 25.2123 72.3674C25.7761 72.3038 26.3582 72.3666 26.9574 72.5501C27.8689 72.828 28.5781 73.3173 29.0878 74.0053C29.5919 74.6947 29.8521 75.4986 29.8559 76.4143L29.4991 76.1106L36.1035 74.8578L35.2703 77.4054L29.12 78.5149L29.5125 78.1667L28.4734 81.361L26.461 80.7452L27.4855 77.5904C27.6941 76.9549 27.6722 76.389 27.4255 75.8912C27.1787 75.3934 26.7657 75.0562 26.1933 74.8839C25.6196 74.706 25.0957 74.7596 24.6189 75.0336C24.1421 75.3076 23.7994 75.7623 23.5907 76.3978L22.5898 79.4753L22.5969 79.4795Z" fill="#F5B19A"></path><path d="M25.425 65.9634L26.4993 63.8133L38.7042 69.6623L37.6299 71.8125L25.425 65.9634Z" fill="#F5B19A"></path><path d="M28.6365 59.471L34.5359 50.809L36.3887 52.032L30.4893 60.6939L28.6365 59.471ZM32.4981 57.2061L33.8395 55.2319L43.5204 61.6239L42.179 63.598L32.4981 57.2061Z" fill="#F5B19A"></path><path d="M46.7942 49.5205L37.4747 47.0518L39.4099 45.1309L45.8353 46.9223L44.0204 40.5497L45.9412 38.6444L48.4679 47.8677L52.1464 51.4968L50.4741 53.1551L46.7955 49.5261L46.7942 49.5205Z" fill="#F5B19A"></path><path d="M68.8004 38.3228C68.6076 38.8 68.3065 39.3043 67.9 39.8469C67.4936 40.3895 66.8861 40.8751 66.0819 41.3206C65.4791 41.6501 64.8747 41.8728 64.2687 41.9886C63.6627 42.1044 63.0989 42.1203 62.5775 42.0362C62.0561 41.9521 61.577 41.768 61.1573 41.4797C60.7319 41.1929 60.3857 40.8087 60.123 40.3203C59.9408 39.9905 59.8226 39.6506 59.7627 39.3021C59.7028 38.9537 59.6999 38.5909 59.7411 38.2112C59.7824 37.8314 59.8889 37.4473 60.0538 37.0545C60.2187 36.6617 60.4305 36.2631 60.6949 35.8574C59.9837 35.6122 59.4119 35.3441 58.9895 35.0445C58.5671 34.745 58.2363 34.3749 57.9915 33.9356C57.7412 33.4739 57.5932 33.0104 57.5616 32.5535C57.5285 32.0911 57.589 31.641 57.7347 31.1934C57.8817 30.7515 58.1263 30.3387 58.4641 29.9623C58.802 29.5858 59.2188 29.2611 59.7302 28.9782C60.2259 28.7053 60.7104 28.5365 61.1839 28.4717C61.6573 28.4069 62.1142 28.4237 62.5431 28.525C62.9778 28.6248 63.3717 28.8063 63.725 29.0695C64.0783 29.3327 64.3725 29.6762 64.6075 30.1001C64.8022 30.4566 64.9157 30.8274 64.9496 31.2181C64.9835 31.6089 64.9493 31.9928 64.8527 32.3685C64.7561 32.7442 64.6013 33.1285 64.3995 33.5186C64.1978 33.9087 63.9607 34.2779 63.6942 34.6246L67.2361 35.7169C67.2261 35.4751 67.1765 35.2194 67.0859 34.9441C66.9897 34.6703 66.8582 34.3754 66.6844 34.0554C66.5871 33.8772 66.473 33.6793 66.3491 33.466C66.2252 33.2527 66.0758 33.0338 65.908 32.8136L67.722 31.8237C67.8898 32.0439 68.0365 32.2515 68.1648 32.4577C68.293 32.664 68.4071 32.8619 68.5142 33.0556C68.8035 33.5791 69.0076 34.1 69.1393 34.6212C69.2654 35.1438 69.2862 35.6808 69.1935 36.2224L72.8782 37.3565L70.3228 38.7524L68.8091 38.3087L68.8004 38.3228ZM61.8672 34.1341C62.29 33.5338 62.6013 32.9972 62.7898 32.527C62.9796 32.0624 62.9648 31.6252 62.7465 31.221C62.531 30.828 62.2314 30.5871 61.8507 30.4857C61.4643 30.3857 61.069 30.4488 60.659 30.6765C60.4505 30.7882 60.2729 30.928 60.1205 31.0972C59.9681 31.2664 59.8596 31.4425 59.7921 31.6381C59.7232 31.8282 59.7009 32.0363 59.7183 32.2584C59.7356 32.4805 59.8042 32.6898 59.914 32.8947C60.0113 33.0729 60.1274 33.2286 60.2608 33.3561C60.3941 33.4836 60.5406 33.59 60.7043 33.6682C60.8694 33.7521 61.0432 33.8218 61.2341 33.8873C61.425 33.9528 61.6457 34.0167 61.8862 34.0877L61.8699 34.1454L61.8672 34.1341ZM62.4771 36.4126C62.3689 36.5648 62.2661 36.7395 62.1503 36.9353C62.0416 37.1353 61.9483 37.3493 61.8718 37.5829C61.7953 37.8166 61.7641 38.0627 61.7769 38.3157C61.7896 38.5688 61.8704 38.8286 62.0122 39.0911C62.2833 39.5893 62.7214 39.879 63.3152 39.9628C63.909 40.0467 64.5495 39.8984 65.2437 39.5222C65.665 39.2917 66.0132 39.008 66.2781 38.6796C66.5431 38.3511 66.7383 38.0341 66.8596 37.7357L62.4815 36.4056L62.4771 36.4126Z" fill="#F5B19A"></path><path d="M78.563 25.4637C78.7139 24.5615 79.0186 23.746 79.4745 23.0061C79.9303 22.2661 80.5169 21.6425 81.2316 21.1239C81.9462 20.6054 82.7599 20.2469 83.6782 20.047C84.2577 19.92 84.8321 19.8717 85.3955 19.9037C85.9647 19.9342 86.5133 20.0295 87.0355 20.191C87.5577 20.3525 88.0621 20.59 88.5371 20.9064C89.0107 21.2172 89.448 21.6026 89.8533 22.0557L88.2647 23.7348C87.6473 23.0784 87.0006 22.6261 86.3272 22.3891C85.6525 22.1465 84.9371 22.1108 84.1854 22.275C83.566 22.412 83.0364 22.6458 82.5936 22.9891C82.1495 23.3267 81.7967 23.7428 81.5227 24.2346C81.2543 24.725 81.0763 25.2643 80.9957 25.8568C80.9151 26.4493 80.9449 27.0737 81.078 27.726C81.2112 28.3783 81.4431 28.9641 81.761 29.4808C82.0803 30.003 82.4603 30.4267 82.9011 30.7516C83.342 31.0765 83.8379 31.3042 84.3818 31.4305C84.9258 31.5568 85.5039 31.5493 86.1076 31.4222C86.8764 31.2537 87.5322 30.9168 88.0919 30.4072C88.6459 29.8991 89.0741 29.2197 89.3791 28.3803L91.4054 29.2924C91.2398 29.8584 91.0024 30.3768 90.6887 30.8547C90.3751 31.3326 90.0066 31.7586 89.5847 32.1383C89.1628 32.5181 88.7005 32.8304 88.1891 33.0895C87.6834 33.3471 87.1429 33.5359 86.5805 33.6587C85.6508 33.8614 84.7544 33.877 83.8914 33.7053C83.0284 33.5336 82.2368 33.207 81.5223 32.724C80.8077 32.2409 80.2041 31.6169 79.7015 30.8603C79.1988 30.1037 78.8451 29.2383 78.6474 28.2683C78.4467 27.311 78.4232 26.3869 78.5741 25.4847L78.563 25.4637Z" fill="#F5B19A"></path><path d="M98.8989 18.5531L101.601 18.5332L106.72 32.0165L104.144 32.0345L103.014 28.9246L103.444 29.2285L96.9353 29.2761L97.3508 28.9694L96.1957 32.0965L93.6384 32.116L98.9046 18.5517L98.8989 18.5531ZM97.606 27.2718L102.86 27.2339L102.613 27.564L100.102 20.9354L100.368 20.9346L97.7883 27.6019L97.6074 27.2775L97.606 27.2718Z" fill="#F5B19A"></path><path d="M113.746 21.7943L114.118 21.5103L111.674 33.0233L109.334 32.5706L112.152 19.2946L117.573 20.3482C118.207 20.47 118.771 20.6807 119.27 20.9675C119.768 21.2544 120.17 21.619 120.491 22.0458C120.805 22.474 121.02 22.963 121.135 23.5128C121.249 24.0627 121.238 24.6439 121.109 25.2606C120.911 26.1928 120.484 26.9555 119.838 27.5345C119.192 28.1135 118.407 28.465 117.485 28.5763L117.755 28.1927L119.617 34.5613L116.979 34.0462L115.299 28.109L115.684 28.454L112.38 27.8074L112.82 25.7473L116.086 26.3855C116.745 26.5129 117.31 26.4252 117.787 26.1212C118.264 25.8171 118.567 25.3715 118.692 24.7857C118.816 24.1999 118.717 23.688 118.399 23.2486C118.076 22.8106 117.591 22.5264 116.931 22.3991L113.749 21.7817L113.746 21.7943Z" fill="#F5B19A"></path><path d="M131.909 37.1259L131.064 39.1311L122.613 35.7437L127.892 23.201L136.169 26.5187L135.324 28.5239L128.979 25.9805L129.4 25.7739L125.538 34.9524L125.392 34.5184L131.903 37.1273L131.909 37.1259ZM133.255 31.3417L132.425 33.3075L126.769 31.039L127.599 29.0732L133.255 31.3417Z" fill="#F5B19A"></path><path d="M147.831 47.8564L146.483 49.5755L139.284 44.0788L147.707 33.3289L154.765 38.7177L153.417 40.4368L148.01 36.3091L148.47 36.2177L142.308 44.079L142.282 43.6209L147.831 47.8564ZM150.671 42.613L149.35 44.2954L144.526 40.6114L145.847 38.929L150.671 42.613Z" fill="#F5B19A"></path><path d="M164.988 49.4707L166.625 51.3292L153.087 56.6492L151.383 54.7122L158.517 42.1248L160.154 43.9833L154.288 54.0751L154.13 53.8945L164.994 49.4693L164.988 49.4707Z" fill="#F5B19A"></path><path d="M164.222 69.3805L162.335 70.4833L157.773 62.6969L169.588 55.7963L174.059 63.4271L172.171 64.5299L168.747 58.6849L169.203 58.7733L160.559 63.8213L160.706 63.3799L164.223 69.3861L164.222 69.3805ZM168.816 65.5475L166.96 66.6305L163.905 61.4135L165.76 60.3304L168.816 65.5475Z" fill="#F5B19A"></path><path d="M175.202 71.4082L175.634 71.5739L164.482 75.6308L163.688 73.4128L176.542 68.7338L178.385 73.8742C178.601 74.4691 178.708 75.0614 178.707 75.6331C178.707 76.2104 178.606 76.7416 178.393 77.2353C178.181 77.729 177.871 78.1696 177.452 78.56C177.039 78.949 176.534 79.254 175.934 79.4694C175.03 79.7967 174.16 79.8416 173.332 79.6083C172.502 79.3694 171.802 78.8955 171.243 78.1781L171.714 78.2033L167.178 83.1591L166.28 80.6576L170.54 76.0862L170.44 76.5992L169.316 73.4636L171.313 72.7381L172.42 75.8302C172.643 76.4531 173.007 76.8859 173.512 77.1287C174.017 77.3715 174.551 77.3866 175.116 77.1798C175.682 76.9729 176.079 76.6177 176.29 76.1184C176.506 75.612 176.498 75.0545 176.274 74.4259L175.19 71.4054L175.202 71.4082Z" fill="#F5B19A"></path><path d="M173.533 88.6019L181.149 82.59L181.548 85.2461L176.227 89.3447L182.503 91.5789L182.902 94.2111L173.881 90.8958L168.715 91.7354L168.368 89.4471L173.534 88.6075L173.533 88.6019Z" fill="#F5B19A"></path><path d="M173.328 106.839C172.603 107.086 172.036 107.46 171.608 107.96C171.185 108.458 170.924 109.101 170.823 109.882C170.782 110.19 170.787 110.486 170.831 110.767C170.88 111.047 170.958 111.295 171.078 111.515C171.197 111.735 171.355 111.916 171.554 112.063C171.758 112.208 171.978 112.296 172.226 112.323C172.487 112.353 172.72 112.319 172.932 112.224C173.144 112.129 173.339 111.985 173.527 111.79C173.708 111.59 173.894 111.335 174.07 111.017C174.247 110.699 174.445 110.346 174.663 109.946C174.929 109.373 175.206 108.846 175.498 108.356C175.79 107.866 176.111 107.447 176.465 107.09C176.82 106.734 177.227 106.471 177.687 106.302C178.147 106.134 178.678 106.084 179.287 106.158C179.9 106.225 180.429 106.414 180.882 106.718C181.329 107.023 181.698 107.401 181.975 107.849C182.258 108.296 182.445 108.797 182.545 109.338C182.647 109.884 182.663 110.427 182.595 110.968C182.517 111.547 182.382 112.063 182.179 112.519C181.975 112.975 181.723 113.383 181.423 113.738C181.122 114.093 180.784 114.392 180.42 114.632C180.05 114.873 179.667 115.064 179.281 115.214L178.181 113.304C178.731 113.107 179.221 112.788 179.646 112.349C180.078 111.913 180.331 111.362 180.419 110.703C180.452 110.463 180.445 110.208 180.401 109.951C180.357 109.695 180.283 109.463 180.168 109.26C180.058 109.055 179.908 108.884 179.725 108.751C179.541 108.613 179.317 108.532 179.043 108.499C178.733 108.464 178.457 108.521 178.226 108.662C177.996 108.809 177.781 108.993 177.595 109.224C177.404 109.457 177.244 109.717 177.113 110C176.982 110.283 176.847 110.549 176.721 110.776C176.411 111.342 176.118 111.88 175.829 112.381C175.545 112.88 175.223 113.318 174.864 113.682C174.505 114.045 174.094 114.315 173.619 114.499C173.149 114.676 172.584 114.734 171.933 114.659C171.281 114.584 170.727 114.389 170.274 114.061C169.821 113.734 169.46 113.336 169.195 112.861C168.929 112.386 168.751 111.871 168.658 111.311C168.565 110.751 168.554 110.206 168.623 109.665C168.702 109.044 168.849 108.477 169.058 107.966C169.266 107.456 169.531 107.003 169.852 106.607C170.173 106.211 170.538 105.876 170.954 105.599C171.37 105.323 171.808 105.112 172.27 104.954L173.31 106.838L173.328 106.839Z" fill="#F5B19A"></path><path d="M177.954 123.304L177.246 125.57L166.07 122.3L166.778 120.033L177.954 123.304ZM180.99 120.033L177.887 129.975L175.745 129.35L178.848 119.407L180.99 120.033Z" fill="#F5B19A"></path><path d="M161.502 137.89L159.568 136.926L163.773 128.81L175.893 134.839L171.774 142.791L169.834 141.829L172.989 135.738L173.159 136.166L164.29 131.754L164.745 131.641L161.502 137.89ZM167.196 139.599L165.295 138.651L168.113 133.217L170.014 134.165L167.196 139.599Z" fill="#F5B19A"></path><path d="M165.8 148.462L156.444 141.46L157.903 139.562L168.733 147.663L165.414 151.977C165.017 152.487 164.578 152.896 164.089 153.203C163.6 153.504 163.089 153.691 162.551 153.766C162.013 153.841 161.471 153.804 160.923 153.66C160.374 153.517 159.846 153.256 159.35 152.879C158.862 152.511 158.469 152.085 158.183 151.601C157.892 151.12 157.708 150.611 157.629 150.082C157.55 149.553 157.587 149.006 157.737 148.45C157.887 147.893 158.163 147.359 158.56 146.848L160.658 144.116L162.406 145.421L160.454 147.955C160.044 148.487 159.89 149.027 159.996 149.567C160.102 150.107 160.387 150.561 160.858 150.909C161.337 151.266 161.845 151.419 162.388 151.361C162.93 151.303 163.408 151.005 163.818 150.473L165.719 148.005L165.811 148.459L165.8 148.462Z" fill="#F5B19A"></path><path d="M151.376 161.251C151.619 162.132 151.675 162.994 151.558 163.834C151.442 164.679 151.157 165.477 150.704 166.228C150.251 166.979 149.632 167.641 148.839 168.208C148.057 168.773 147.231 169.153 146.371 169.344C145.508 169.542 144.66 169.557 143.83 169.396C143 169.234 142.201 168.903 141.435 168.404C140.674 167.903 139.996 167.244 139.403 166.439C138.806 165.617 138.39 164.767 138.147 163.886C137.911 163.004 137.844 162.151 137.957 161.318C138.07 160.485 138.357 159.698 138.817 158.952C139.277 158.205 139.898 157.549 140.679 156.984C141.451 156.428 142.266 156.051 143.123 155.849C143.98 155.646 144.83 155.618 145.669 155.766C146.508 155.914 147.311 156.237 148.081 156.73C148.854 157.228 149.531 157.881 150.119 158.693C150.716 159.515 151.132 160.365 151.375 161.246L151.376 161.251ZM148.661 165.118C148.935 164.627 149.096 164.116 149.153 163.577C149.205 163.04 149.142 162.477 148.965 161.896C148.789 161.314 148.501 160.749 148.103 160.199C147.696 159.639 147.243 159.186 146.741 158.835C146.24 158.483 145.725 158.249 145.188 158.127C144.651 158.005 144.112 157.997 143.564 158.104C143.018 158.217 142.494 158.449 142.006 158.804C141.502 159.168 141.114 159.587 140.833 160.074C140.556 160.555 140.391 161.073 140.341 161.615C140.291 162.158 140.36 162.719 140.542 163.299C140.723 163.874 141.017 164.444 141.424 165.004C141.822 165.554 142.269 166.002 142.764 166.355C143.26 166.708 143.775 166.942 144.318 167.063C144.854 167.185 145.4 167.191 145.942 167.086C146.484 166.98 147.006 166.742 147.511 166.383C148.005 166.027 148.386 165.604 148.661 165.118Z" fill="#F5B19A"></path><path d="M137.988 174.735L129.783 178.463L128.898 176.5L135.176 173.647L135.035 174.088L130.227 163.445L132.431 162.447L137.989 174.741L137.988 174.735ZM128.789 172.79L127.908 170.843L132.959 168.547L133.841 170.494L128.789 172.79Z" fill="#F5B19A"></path><path d="M118.831 181.786L108.469 183.566L108.116 181.376L118.478 179.596L118.831 181.786ZM114.556 180.577L112.193 180.983L110.352 169.542L112.715 169.136L114.556 180.577Z" fill="#F5B19A"></path><path d="M94.882 170.159L94.337 183.678L91.9121 183.617L92.4571 170.098L94.882 170.159ZM94.169 178.123L94.256 175.979L101.336 176.157L101.249 178.301L94.169 178.123ZM103.04 183.898L100.633 183.838L101.178 170.319L103.585 170.379L103.04 183.898Z" fill="#F5B19A"></path><path d="M78.9493 169.386L79.4677 167.277L88.3681 169.314L85.1071 182.494L76.3851 180.496L76.9035 178.387L83.5855 179.917L83.2033 180.186L85.5845 170.547L85.8028 170.951L78.9423 169.382L78.9493 169.386ZM78.5253 175.293L79.0361 173.228L84.9957 174.593L84.4849 176.658L78.5253 175.293Z" fill="#F5B19A"></path><path d="M64.5934 176.266L62.5156 175.011L65.9907 164.037L66.1669 164.142L57.9106 171.962L55.9188 170.762L59.2556 159.966L59.4459 160.079L51.088 168.104L48.9609 166.819L59.3176 157.144L61.8972 158.704L58.9878 168.243L58.7975 168.13L66.1598 161.284L68.7112 162.826L64.6018 176.276L64.5934 176.266Z" fill="#F5B19A"></path><path d="M42.6835 160.668L40.7899 158.796L46.8253 145.545L48.6319 147.332L47.2072 150.355L47.1252 149.84L51.6937 154.348L51.1881 154.278L54.2203 152.841L56.0172 154.612L42.6892 160.667L42.6835 160.668ZM49.7975 155.316L46.1084 151.678L46.5162 151.618L43.5424 158.125L43.353 157.94L49.898 154.958L49.7918 155.318L49.7975 155.316Z" fill="#F5B19A"></path><path d="M39.9306 144.65L35.695 153.313L34.1593 151.121L37.1647 145.158L30.4964 145.885L28.9704 143.708L38.5985 142.753L42.9011 139.767L44.2262 141.661L39.9236 144.646L39.9306 144.65Z" fill="#F5B19A"></path><path d="M86.3049 44.3465C54.8782 52.0649 35.6537 83.7583 43.3616 115.142C51.0696 146.527 82.7903 165.714 114.217 157.995C145.644 150.277 164.872 118.577 157.165 87.1924C149.457 55.8083 117.732 36.6281 86.3049 44.3465ZM88.2198 135.329C87.7617 135.663 87.1489 135.196 87.3477 134.662C90.3439 126.554 90.9474 116.45 87.2604 106.74C83.5733 97.031 76.3194 89.6602 68.6847 85.5535C68.1869 85.2862 68.3316 84.5314 68.8945 84.477C81.2272 83.3242 93.3012 90.4283 97.9118 102.554C102.521 114.674 98.2138 128.001 88.224 135.322L88.2198 135.329ZM95.0198 85.1093C91.9174 85.3558 88.9216 83.5442 87.7018 80.6791C85.6945 75.9516 88.8671 70.737 93.9846 70.3372C97.0828 70.0978 100.071 71.9051 101.294 74.7575C103.317 79.4752 100.153 84.6997 95.0198 85.1093ZM121.015 72.7011C116.145 79.8731 113.138 89.77 114.368 100.083C115.597 110.39 120.814 119.07 127.218 124.864C127.642 125.245 127.315 125.943 126.755 125.859C114.509 123.993 104.525 114.182 102.989 101.307C101.452 88.4264 108.867 76.5358 120.325 71.8457C120.849 71.6331 121.333 72.2336 121.01 72.7025L121.015 72.7011Z" fill="#F5B19A"></path></svg>