<svg xmlns="http://www.w3.org/2000/svg" width="236" height="52" viewBox="0 0 236 52" fill="none"><g clip-path="url(#clip0_1052_4930)"><path d="M165.663 5.09099V8.49559H164.251V0.415894H165.663V3.77527H169.496V0.415894H170.907V8.49559H169.496V5.09099H165.663Z" fill="#1F1F1F" style="fill:#1F1F1F;fill:color(display-p3 0.1216 0.1216 0.1216);fill-opacity:1;"></path><path d="M176.791 2.40088H178.18V8.49569H176.791V7.55072C176.4 8.12946 175.838 8.62681 174.899 8.62681C173.533 8.62681 172.742 7.70445 172.742 6.28474V2.40088H174.13V5.86425C174.13 6.80922 174.602 7.35178 175.425 7.35178C176.247 7.35178 176.791 6.78661 176.791 5.84164V2.40088Z" fill="#1F1F1F" style="fill:#1F1F1F;fill:color(display-p3 0.1216 0.1216 0.1216);fill-opacity:1;"></path><path d="M183.363 8.62255C182.365 8.62255 181.736 8.11616 181.309 7.54647V8.49143H179.92V0.0681152H181.309V3.41393C181.758 2.78094 182.387 2.27002 183.363 2.27002C184.796 2.27002 186.185 3.41393 186.185 5.44403C186.185 7.47412 184.81 8.61803 183.363 8.61803V8.62255ZM183.043 3.48627C182.104 3.48627 181.277 4.25943 181.277 5.44855C181.277 6.63767 182.104 7.41082 183.043 7.41082C183.983 7.41082 184.774 6.66028 184.774 5.44855C184.774 4.23682 183.983 3.48627 183.043 3.48627Z" fill="#1F1F1F" style="fill:#1F1F1F;fill:color(display-p3 0.1216 0.1216 0.1216);fill-opacity:1;"></path><path d="M194.332 2.44595V3.5989H192.75V8.49102H191.361V3.5989H190.592V2.43238H191.361V1.99381C191.361 0.655482 192.026 -0.00463867 193.221 -0.00463867C193.702 -0.00463867 194.035 0.0631819 194.345 0.158131V1.33369C194.071 1.24326 193.828 1.18448 193.532 1.18448C193.006 1.18448 192.727 1.47385 192.727 2.10684V2.44142H194.332V2.44595Z" fill="#1F1F1F" style="fill:#1F1F1F;fill:color(display-p3 0.1216 0.1216 0.1216);fill-opacity:1;"></path><path d="M198.125 8.63147C196.277 8.63147 194.911 7.21176 194.911 5.46651C194.911 3.72126 196.286 2.2699 198.147 2.2699C200.008 2.2699 201.369 3.68961 201.369 5.4439C201.369 7.19819 199.994 8.63147 198.125 8.63147ZM198.125 3.49519C197.01 3.49519 196.3 4.37234 196.3 5.4439C196.3 6.51547 197.068 7.41974 198.147 7.41974C199.226 7.41974 199.981 6.54259 199.981 5.47103C199.981 4.39946 199.212 3.49519 198.12 3.49519H198.125Z" fill="#1F1F1F" style="fill:#1F1F1F;fill:color(display-p3 0.1216 0.1216 0.1216);fill-opacity:1;"></path><path d="M204.175 8.49557H202.786V2.40076H204.175V3.77525C204.552 2.86194 205.253 2.24251 206.319 2.28772V3.76621H206.238C205.02 3.76621 204.17 4.56197 204.17 6.18062V8.50009L204.175 8.49557Z" fill="#1F1F1F" style="fill:#1F1F1F;fill:color(display-p3 0.1216 0.1216 0.1216);fill-opacity:1;"></path><path d="M165.744 14.265V22.3447H164.333V14.265H165.744Z" fill="#1F1F1F" style="fill:#1F1F1F;fill:color(display-p3 0.1216 0.1216 0.1216);fill-opacity:1;"></path><path d="M169.115 22.3447H167.726V16.2499H169.115V17.1949C169.506 16.6161 170.068 16.1233 171.007 16.1233C172.373 16.1233 173.164 17.0457 173.164 18.4654V22.3447H171.775V18.8813C171.775 17.9364 171.303 17.3938 170.481 17.3938C169.659 17.3938 169.115 17.959 169.115 18.9039V22.3447Z" fill="#1F1F1F" style="fill:#1F1F1F;fill:color(display-p3 0.1216 0.1216 0.1216);fill-opacity:1;"></path><path d="M176.513 20.441C176.513 20.9836 176.787 21.2006 177.259 21.2006C177.569 21.2006 177.843 21.1328 178.117 20.9926V22.1365C177.771 22.3309 177.385 22.4485 176.868 22.4485C175.848 22.4485 175.124 21.9964 175.124 20.658V17.4479H174.355V16.2497H175.124V14.5768H176.513V16.2497H178.14V17.4479H176.513V20.4365V20.441Z" fill="#1F1F1F" style="fill:#1F1F1F;fill:color(display-p3 0.1216 0.1216 0.1216);fill-opacity:1;"></path><path d="M182.171 21.341C182.849 21.341 183.33 21.0878 183.811 20.613L184.624 21.341C184.049 22.0327 183.258 22.4849 182.148 22.4849C180.391 22.4849 179.038 21.2053 179.038 19.3109C179.038 17.5566 180.265 16.1233 182 16.1233C183.928 16.1233 184.903 17.647 184.903 19.4148C184.903 19.5414 184.89 19.659 184.881 19.7946H180.431C180.593 20.7893 181.281 21.341 182.175 21.341H182.171ZM183.523 18.8678C183.433 17.968 182.903 17.2627 181.986 17.2627C181.137 17.2627 180.539 17.9228 180.413 18.8678H183.523Z" fill="#1F1F1F" style="fill:#1F1F1F;fill:color(display-p3 0.1216 0.1216 0.1216);fill-opacity:1;"></path><path d="M188.998 24.2122C188 24.2122 187.07 23.959 186.292 23.4842L186.809 22.4353C187.452 22.8377 188.139 23.0818 188.966 23.0818C190.207 23.0818 190.881 22.4353 190.881 21.21V20.7352C190.378 21.3953 189.744 21.8565 188.746 21.8565C187.322 21.8565 185.991 20.8076 185.991 18.9945C185.991 17.1814 187.335 16.1189 188.746 16.1189C189.766 16.1189 190.4 16.5936 190.867 17.1588V16.2455H192.256V21.0924C192.256 23.2491 191.088 24.2076 188.998 24.2076V24.2122ZM189.11 17.299C188.148 17.299 187.389 17.9681 187.389 18.9854C187.389 20.0028 188.157 20.681 189.11 20.681C190.063 20.681 190.89 19.9982 190.89 18.9945C190.89 17.9907 190.077 17.299 189.11 17.299Z" fill="#1F1F1F" style="fill:#1F1F1F;fill:color(display-p3 0.1216 0.1216 0.1216);fill-opacity:1;"></path><path d="M195.374 22.3444H193.985V16.2496H195.374V17.6241C195.752 16.7108 196.453 16.0914 197.518 16.1366V17.6151H197.437C196.219 17.6151 195.37 18.4108 195.37 20.0295V22.349L195.374 22.3444Z" fill="#1F1F1F" style="fill:#1F1F1F;fill:color(display-p3 0.1216 0.1216 0.1216);fill-opacity:1;"></path><path d="M202.143 22.3447V21.5941C201.73 22.0915 201.101 22.4713 200.179 22.4713C199.033 22.4713 198.022 21.8111 198.022 20.5904V20.5678C198.022 19.252 199.065 18.6055 200.476 18.6055C201.208 18.6055 201.68 18.7095 202.152 18.8587V18.7095C202.152 17.8685 201.626 17.4073 200.66 17.4073C199.981 17.4073 199.478 17.5565 198.93 17.7871L198.552 16.6658C199.217 16.3674 199.874 16.1594 200.858 16.1594C202.647 16.1594 203.518 17.1044 203.518 18.7321V22.3447H202.143ZM202.175 19.7584C201.82 19.6183 201.325 19.5143 200.786 19.5143C199.914 19.5143 199.397 19.8715 199.397 20.4954V20.518C199.397 21.0968 199.914 21.4178 200.566 21.4178C201.483 21.4178 202.17 20.8978 202.17 20.1382V19.7584H202.175Z" fill="#1F1F1F" style="fill:#1F1F1F;fill:color(display-p3 0.1216 0.1216 0.1216);fill-opacity:1;"></path><path d="M206.791 20.441C206.791 20.9836 207.065 21.2006 207.537 21.2006C207.847 21.2006 208.121 21.1328 208.395 20.9926V22.1365C208.049 22.3309 207.663 22.4485 207.146 22.4485C206.126 22.4485 205.402 21.9964 205.402 20.658V17.4479H204.634V16.2497H205.402V14.5768H206.791V16.2497H208.418V17.4479H206.791V20.4365V20.441Z" fill="#1F1F1F" style="fill:#1F1F1F;fill:color(display-p3 0.1216 0.1216 0.1216);fill-opacity:1;"></path><path d="M209.836 15.314V13.9847H211.329V15.314H209.836ZM209.895 22.3448V16.2499H211.284V22.3448H209.895Z" fill="#1F1F1F" style="fill:#1F1F1F;fill:color(display-p3 0.1216 0.1216 0.1216);fill-opacity:1;"></path><path d="M215.976 22.4805C214.128 22.4805 212.762 21.0608 212.762 19.3155C212.762 17.5703 214.137 16.1189 215.998 16.1189C217.859 16.1189 219.22 17.5386 219.22 19.2929C219.22 21.0472 217.845 22.4805 215.976 22.4805ZM215.976 17.3442C214.861 17.3442 214.151 18.2213 214.151 19.2929C214.151 20.3645 214.919 21.2687 215.998 21.2687C217.077 21.2687 217.832 20.3916 217.832 19.32C217.832 18.2485 217.063 17.3442 215.971 17.3442H215.976Z" fill="#1F1F1F" style="fill:#1F1F1F;fill:color(display-p3 0.1216 0.1216 0.1216);fill-opacity:1;"></path><path d="M222.022 22.3447H220.633V16.2499H222.022V17.1949C222.413 16.6161 222.974 16.1233 223.914 16.1233C225.28 16.1233 226.071 17.0457 226.071 18.4654V22.3447H224.682V18.8813C224.682 17.9364 224.21 17.3938 223.388 17.3938C222.565 17.3938 222.022 17.959 222.022 18.9039V22.3447Z" fill="#1F1F1F" style="fill:#1F1F1F;fill:color(display-p3 0.1216 0.1216 0.1216);fill-opacity:1;"></path><path d="M228.242 22.3448H227.657V20.7623H229.186V22.1007C229.186 23.3802 228.579 23.9228 227.419 24.0177L227.271 23.4299C227.972 23.2898 228.305 22.9326 228.246 22.3448H228.242Z" fill="#1F1F1F" style="fill:#1F1F1F;fill:color(display-p3 0.1216 0.1216 0.1216);fill-opacity:1;"></path><path d="M169.402 36.1935L167.429 33.3766H165.663V36.1935H164.251V28.1138H167.829C169.676 28.1138 170.813 29.0949 170.813 30.6774C170.813 32.0157 170.022 32.825 168.899 33.137L171.065 36.1935H169.402ZM167.717 29.4069H165.663V32.1197H167.73C168.741 32.1197 169.384 31.5907 169.384 30.7588C169.384 29.8681 168.764 29.4069 167.721 29.4069H167.717Z" fill="#1F1F1F" style="fill:#1F1F1F;fill:color(display-p3 0.1216 0.1216 0.1216);fill-opacity:1;"></path><path d="M175.07 35.1898C175.748 35.1898 176.229 34.9366 176.71 34.4619L177.523 35.1898C176.948 35.8816 176.157 36.3337 175.047 36.3337C173.29 36.3337 171.937 35.0542 171.937 33.1597C171.937 31.4054 173.164 29.9722 174.899 29.9722C176.827 29.9722 177.802 31.4959 177.802 33.2637C177.802 33.3903 177.789 33.5079 177.78 33.6435H173.33C173.492 34.6382 174.18 35.1898 175.074 35.1898H175.07ZM176.422 32.7212C176.332 31.8214 175.802 31.1161 174.885 31.1161C174.036 31.1161 173.438 31.7762 173.312 32.7212H176.422Z" fill="#1F1F1F" style="fill:#1F1F1F;fill:color(display-p3 0.1216 0.1216 0.1216);fill-opacity:1;"></path><path d="M182.001 35.1898C182.679 35.1898 183.16 34.9366 183.641 34.4619L184.455 35.1898C183.879 35.8816 183.088 36.3337 181.978 36.3337C180.221 36.3337 178.868 35.0542 178.868 33.1597C178.868 31.4054 180.095 29.9722 181.83 29.9722C183.758 29.9722 184.733 31.4959 184.733 33.2637C184.733 33.3903 184.72 33.5079 184.711 33.6435H180.261C180.423 34.6382 181.111 35.1898 182.005 35.1898H182.001ZM183.353 32.7212C183.264 31.8214 182.733 31.1161 181.816 31.1161C180.967 31.1161 180.369 31.7762 180.243 32.7212H183.353Z" fill="#1F1F1F" style="fill:#1F1F1F;fill:color(display-p3 0.1216 0.1216 0.1216);fill-opacity:1;"></path><path d="M187.515 36.1936H186.126V30.0988H187.515V31.0437C187.906 30.465 188.467 29.9722 189.407 29.9722C190.773 29.9722 191.564 30.8945 191.564 32.3142V36.1936H190.175V32.7302C190.175 31.7852 189.703 31.2427 188.881 31.2427C188.058 31.2427 187.515 31.8078 187.515 32.7528V36.1936Z" fill="#1F1F1F" style="fill:#1F1F1F;fill:color(display-p3 0.1216 0.1216 0.1216);fill-opacity:1;"></path><path d="M194.917 34.2899C194.917 34.8324 195.191 35.0495 195.663 35.0495C195.973 35.0495 196.247 34.9816 196.521 34.8415V35.9854C196.175 36.1798 195.789 36.2974 195.272 36.2974C194.252 36.2974 193.528 35.8452 193.528 34.5069V31.2967H192.76V30.0986H193.528V28.4257H194.917V30.0986H196.544V31.2967H194.917V34.2854V34.2899Z" fill="#1F1F1F" style="fill:#1F1F1F;fill:color(display-p3 0.1216 0.1216 0.1216);fill-opacity:1;"></path><path d="M199.329 36.1934H197.94V30.0986H199.329V31.4731C199.707 30.5598 200.408 29.9404 201.473 29.9856V31.4641H201.392C200.174 31.4641 199.325 32.2598 199.325 33.8785V36.198L199.329 36.1934Z" fill="#1F1F1F" style="fill:#1F1F1F;fill:color(display-p3 0.1216 0.1216 0.1216);fill-opacity:1;"></path><path d="M205.918 36.3654C205.437 37.6133 204.898 38.0745 203.923 38.0745C203.338 38.0745 202.911 37.9343 202.489 37.7037L202.961 36.6638C203.213 36.804 203.487 36.8944 203.774 36.8944C204.165 36.8944 204.404 36.7226 204.633 36.1891L202.107 30.0942H203.586L205.307 34.6201L206.88 30.0942H208.327L205.918 36.3609V36.3654Z" fill="#1F1F1F" style="fill:#1F1F1F;fill:color(display-p3 0.1216 0.1216 0.1216);fill-opacity:1;"></path><path d="M218.685 36.3563L217.62 35.2621C216.933 35.9086 216.128 36.311 215.153 36.311C213.661 36.311 212.537 35.4113 212.537 33.9916C212.537 32.9426 213.144 32.1921 214.245 31.7173C213.787 31.116 213.58 30.6232 213.58 30.0218C213.58 28.9231 214.452 27.9781 215.885 27.9781C217.157 27.9781 218.02 28.8327 218.02 29.9404C218.02 31.0482 217.319 31.6495 216.254 32.0519L217.629 33.4581C217.939 32.9969 218.227 32.4634 218.488 31.8982L219.553 32.4634C219.234 33.1099 218.874 33.7429 218.461 34.3081L219.723 35.6012L218.681 36.3517L218.685 36.3563ZM215.022 32.59C214.276 32.911 213.957 33.4083 213.957 33.9418C213.957 34.6336 214.519 35.131 215.301 35.131C215.854 35.131 216.357 34.8642 216.816 34.4256L215.027 32.59H215.022ZM215.849 29.0949C215.274 29.0949 214.897 29.4973 214.897 30.0761C214.897 30.492 215.058 30.7904 215.503 31.2878C216.33 30.9894 216.766 30.6186 216.766 30.0173C216.766 29.4521 216.389 29.0949 215.849 29.0949Z" fill="#1F1F1F" style="fill:#1F1F1F;fill:color(display-p3 0.1216 0.1216 0.1216);fill-opacity:1;"></path><path d="M170.206 43.2336H165.663V45.3361H169.69V46.6066H165.663V48.7768H170.265V50.0473H164.251V41.9677H170.206V43.2382V43.2336Z" fill="#1F1F1F" style="fill:#1F1F1F;fill:color(display-p3 0.1216 0.1216 0.1216);fill-opacity:1;"></path><path d="M178.868 43.8212C180.189 43.8212 180.989 44.6621 180.989 46.1542V50.0426H179.6V46.5792C179.6 45.6116 179.151 45.0917 178.373 45.0917C177.596 45.0917 177.079 45.6207 177.079 46.6018V50.0426H175.69V46.5702C175.69 45.6252 175.232 45.0917 174.463 45.0917C173.695 45.0917 173.169 45.6704 173.169 46.6154V50.0426H171.78V43.9478H173.169V44.8701C173.56 44.3276 174.086 43.8212 175.016 43.8212C175.888 43.8212 176.495 44.2462 176.818 44.8927C177.313 44.2462 177.955 43.8212 178.872 43.8212H178.868Z" fill="#1F1F1F" style="fill:#1F1F1F;fill:color(display-p3 0.1216 0.1216 0.1216);fill-opacity:1;"></path><path d="M186.116 50.1692C185.118 50.1692 184.489 49.6628 184.062 49.0931V51.8873H182.673V43.9478H184.062V44.9651C184.511 44.3321 185.141 43.8212 186.116 43.8212C187.55 43.8212 188.938 44.9651 188.938 46.9952C188.938 49.0253 187.563 50.1692 186.116 50.1692ZM185.797 45.0329C184.858 45.0329 184.031 45.8061 184.031 46.9952C184.031 48.1843 184.858 48.9574 185.797 48.9574C186.736 48.9574 187.527 48.2069 187.527 46.9952C187.527 45.7834 186.736 45.0329 185.797 45.0329Z" fill="#1F1F1F" style="fill:#1F1F1F;fill:color(display-p3 0.1216 0.1216 0.1216);fill-opacity:1;"></path><path d="M190.44 50.0427V41.6149H191.829V50.0427H190.44Z" fill="#1F1F1F" style="fill:#1F1F1F;fill:color(display-p3 0.1216 0.1216 0.1216);fill-opacity:1;"></path><path d="M196.52 50.1827C194.672 50.1827 193.306 48.763 193.306 47.0178C193.306 45.2725 194.681 43.8212 196.542 43.8212C198.403 43.8212 199.764 45.2409 199.764 46.9952C199.764 48.7495 198.389 50.1827 196.52 50.1827ZM196.52 45.0419C195.405 45.0419 194.695 45.9191 194.695 46.9906C194.695 48.0622 195.463 48.9665 196.542 48.9665C197.621 48.9665 198.376 48.0893 198.376 47.0178C198.376 45.9462 197.607 45.0419 196.515 45.0419H196.52Z" fill="#1F1F1F" style="fill:#1F1F1F;fill:color(display-p3 0.1216 0.1216 0.1216);fill-opacity:1;"></path><path d="M204.071 50.2144C203.59 51.4623 203.051 51.9235 202.075 51.9235C201.491 51.9235 201.064 51.7833 200.642 51.5527L201.114 50.5128C201.365 50.653 201.64 50.7434 201.927 50.7434C202.318 50.7434 202.556 50.5716 202.786 50.038L200.26 43.9432H201.738L203.46 48.4691L205.033 43.9432H206.48L204.071 50.2099V50.2144Z" fill="#1F1F1F" style="fill:#1F1F1F;fill:color(display-p3 0.1216 0.1216 0.1216);fill-opacity:1;"></path><path d="M214.764 43.8212C216.085 43.8212 216.885 44.6621 216.885 46.1542V50.0426H215.496V46.5792C215.496 45.6116 215.047 45.0917 214.269 45.0917C213.492 45.0917 212.975 45.6207 212.975 46.6018V50.0426H211.586V46.5702C211.586 45.6252 211.128 45.0917 210.359 45.0917C209.591 45.0917 209.065 45.6704 209.065 46.6154V50.0426H207.676V43.9478H209.065V44.8701C209.456 44.3276 209.982 43.8212 210.912 43.8212C211.784 43.8212 212.391 44.2462 212.714 44.8927C213.209 44.2462 213.851 43.8212 214.768 43.8212H214.764Z" fill="#1F1F1F" style="fill:#1F1F1F;fill:color(display-p3 0.1216 0.1216 0.1216);fill-opacity:1;"></path><path d="M221.369 49.0388C222.047 49.0388 222.528 48.7856 223.009 48.3109L223.823 49.0388C223.247 49.7306 222.456 50.1827 221.346 50.1827C219.589 50.1827 218.236 48.9032 218.236 47.0087C218.236 45.2544 219.463 43.8212 221.198 43.8212C223.126 43.8212 224.101 45.3449 224.101 47.1127C224.101 47.2393 224.088 47.3569 224.079 47.4925H219.63C219.791 48.4872 220.479 49.0388 221.373 49.0388H221.369ZM222.722 46.5702C222.632 45.6704 222.101 44.9651 221.185 44.9651C220.335 44.9651 219.737 45.6252 219.612 46.5702H222.722Z" fill="#1F1F1F" style="fill:#1F1F1F;fill:color(display-p3 0.1216 0.1216 0.1216);fill-opacity:1;"></path><path d="M226.889 50.0426H225.5V43.9478H226.889V44.8927C227.28 44.314 227.842 43.8212 228.781 43.8212C230.148 43.8212 230.939 44.7435 230.939 46.1632V50.0426H229.55V46.5792C229.55 45.6342 229.078 45.0917 228.255 45.0917C227.433 45.0917 226.889 45.6568 226.889 46.6018V50.0426Z" fill="#1F1F1F" style="fill:#1F1F1F;fill:color(display-p3 0.1216 0.1216 0.1216);fill-opacity:1;"></path><path d="M234.287 48.1389C234.287 48.6814 234.561 48.8985 235.033 48.8985C235.343 48.8985 235.617 48.8306 235.892 48.6905V49.8344C235.546 50.0288 235.159 50.1464 234.642 50.1464C233.622 50.1464 232.898 49.6942 232.898 48.3559V45.1457H232.13V43.9476H232.898V42.2747H234.287V43.9476H235.914V45.1457H234.287V48.1344V48.1389Z" fill="#1F1F1F" style="fill:#1F1F1F;fill:color(display-p3 0.1216 0.1216 0.1216);fill-opacity:1;"></path><path d="M30.8082 50.0199V30.1349H10.8312V50.0199H0V0.488281H10.8312V20.0884H30.8082V0.488281H41.6394V50.0244H30.8082V50.0199Z" fill="#187370" style="fill:#187370;fill:color(display-p3 0.0941 0.4510 0.4392);fill-opacity:1;"></path><path d="M51.1362 50.0203V0.488647H61.9674V50.0248H51.1362V50.0203Z" fill="#187370" style="fill:#187370;fill:color(display-p3 0.0941 0.4510 0.4392);fill-opacity:1;"></path><path d="M101.359 50.0199L90.8067 34.168H82.2946V50.0199H71.4634V0.488281H93.9707C105.575 0.488281 112.541 6.64639 112.541 16.833V16.9732C112.541 24.9715 108.249 29.9948 101.988 32.3278L114.015 50.0199H101.355H101.359ZM101.57 17.3982C101.57 12.7276 98.3346 10.3223 93.0583 10.3223H82.2946V24.5465H93.2696C98.5458 24.5465 101.57 21.7161 101.57 17.5429V17.4027V17.3982Z" fill="#187370" style="fill:#187370;fill:color(display-p3 0.0941 0.4510 0.4392);fill-opacity:1;"></path><path d="M119.506 50.0203V0.488647H156.647V10.1825H130.27V20.229H153.483V29.9228H130.27V40.3265H156.998V50.0203H119.506Z" fill="#187370" style="fill:#187370;fill:color(display-p3 0.0941 0.4510 0.4392);fill-opacity:1;"></path></g><defs><clipPath id="clip0_1052_4930"><rect width="235.913" height="51.9234" fill="white" style="fill:white;fill-opacity:1;"></rect></clipPath></defs></svg>