<svg xmlns="http://www.w3.org/2000/svg" xmlns:xlink="http://www.w3.org/1999/xlink" id="b" viewBox="0 0 252.05 42.53"><defs><style>.e{fill:none;}.f{fill:#fff;}.g{fill:#facc10;}.h{clip-path:url(#d);}</style><clipPath id="d"><rect class="e" x="0" width="252.05" height="42.53"></rect></clipPath></defs><g id="c"><g class="h"><path class="f" d="M93.44,24.92v-13.54c0-.18.12-.3.3-.3h2.28c.18,0,.3.12.3.3v13.54c0,.18-.12.3-.3.3h-2.28c-.18,0-.3-.12-.3-.3"></path><path class="f" d="M101.57,24.92v-13.54c0-.18.12-.3.3-.3h2.28c.18,0,.3.12.3.3v11.28h4.33c.18,0,.3.12.3.3v1.96c0,.18-.12.3-.3.3h-6.91c-.18,0-.3-.12-.3-.3"></path><path class="f" d="M113.7,24.92v-13.54c0-.18.12-.3.3-.3h2.28c.18,0,.3.12.3.3v11.28h4.33c.18,0,.3.12.3.3v1.96c0,.18-.12.3-.3.3h-6.91c-.18,0-.3-.12-.3-.3"></path><path class="f" d="M125.32,19.84v-8.47c0-.18.12-.3.3-.3h2.28c.18,0,.3.12.3.3v8.41c0,1.86.91,2.87,2.47,2.87s2.45-1.01,2.45-2.87v-8.41c0-.18.12-.3.3-.3h2.28c.18,0,.3.12.3.3v8.47c0,3.72-2.22,5.64-5.34,5.64s-5.36-1.92-5.36-5.64"></path><path class="f" d="M141.13,24.92v-13.54c0-.18.12-.3.3-.3h2.65c.16,0,.28.06.34.2l4.23,10.61,4.22-10.61c.06-.14.18-.2.34-.2h2.65c.18,0,.3.12.3.3v13.54c0,.18-.12.3-.3.3h-2.28c-.18,0-.3-.12-.3-.3v-8.45l-3.26,8.51c-.06.16-.2.24-.36.24h-2.02c-.16,0-.3-.08-.36-.24l-3.25-8.51v8.45c0,.18-.12.3-.3.3h-2.28c-.18,0-.3-.12-.3-.3"></path><path class="f" d="M161.38,24.92v-13.54c0-.18.12-.3.3-.3h2.28c.18,0,.3.12.3.3v13.54c0,.18-.12.3-.3.3h-2.28c-.18,0-.3-.12-.3-.3"></path><path class="f" d="M177.45,25.02l-5.05-9.32v9.22c0,.18-.12.3-.3.3h-2.28c-.18,0-.3-.12-.3-.3v-13.54c0-.18.12-.3.3-.3h2.69c.16,0,.28.06.36.2l5.05,9.32v-9.22c0-.18.12-.3.3-.3h2.28c.18,0,.3.12.3.3v13.54c0,.18-.12.3-.3.3h-2.69c-.16,0-.28-.06-.36-.2"></path><path class="f" d="M193.39,20.33l-1.84-5.62-1.84,5.62h3.68ZM185.23,24.88l4.73-13.56c.06-.16.22-.24.38-.24h2.45c.16,0,.32.08.38.24l4.73,13.56c.08.2-.04.34-.26.34h-2.38c-.16,0-.28-.06-.34-.24l-.69-2.08h-5.34l-.69,2.08c-.06.18-.18.24-.34.24h-2.39c-.22,0-.32-.14-.24-.34"></path><path class="f" d="M202.87,24.92v-11.28h-2.77c-.18,0-.3-.12-.3-.3v-1.96c0-.18.12-.3.3-.3h8.41c.18,0,.3.12.3.3v1.96c0,.18-.12.3-.3.3h-2.75v11.28c0,.18-.12.3-.3.3h-2.28c-.18,0-.3-.12-.3-.3"></path><path class="f" d="M213.65,24.92v-13.54c0-.18.12-.3.3-.3h2.28c.18,0,.3.12.3.3v13.54c0,.18-.12.3-.3.3h-2.28c-.18,0-.3-.12-.3-.3"></path><path class="f" d="M228.64,22.65c2.49,0,4.35-1.92,4.35-4.45s-1.86-4.47-4.35-4.47-4.35,1.92-4.35,4.47,1.88,4.45,4.35,4.45M221.37,18.21c0-4.1,3.25-7.3,7.28-7.3s7.28,3.19,7.28,7.3-3.26,7.28-7.28,7.28-7.28-3.19-7.28-7.28"></path><path class="f" d="M248.69,25.02l-5.05-9.32v9.22c0,.18-.12.3-.3.3h-2.28c-.18,0-.3-.12-.3-.3v-13.54c0-.18.12-.3.3-.3h2.69c.16,0,.28.06.36.2l5.05,9.32v-9.22c0-.18.12-.3.3-.3h2.28c.18,0,.3.12.3.3v13.54c0,.18-.12.3-.3.3h-2.69c-.16,0-.28-.06-.36-.2"></path><path class="f" d="M93.44,42.23v-7.29c0-.1.05-.16.15-.16h.9c.1,0,.16.07.16.16v3.16h3.15v-3.16c0-.1.07-.16.16-.16h.9c.1,0,.15.07.15.16v7.29c0,.1-.06.16-.15.16h-.9c-.1,0-.16-.07-.16-.16v-3.06h-3.15v3.06c0,.1-.07.16-.16.16h-.9c-.1,0-.15-.07-.15-.16"></path><path class="f" d="M101.69,42.23v-7.29c0-.1.05-.16.15-.16h3.78c.1,0,.15.07.15.16v.76c0,.1-.06.16-.15.16h-2.71v2.09h2.56c.1,0,.16.07.16.16v.77c0,.1-.07.15-.16.15h-2.56v2.26h2.71c.1,0,.16.07.16.16v.76c0,.1-.07.16-.16.16h-3.78c-.1,0-.15-.07-.15-.16"></path><path class="f" d="M112.34,39.84l-1.21-3.56-1.21,3.56h2.41ZM107.85,42.2l2.59-7.3c.03-.09.11-.13.2-.13h.99c.09,0,.17.04.21.13l2.59,7.3c.04.11-.01.19-.13.19h-.95c-.09,0-.15-.03-.19-.13l-.45-1.33h-3.15l-.46,1.33c-.03.1-.09.13-.18.13h-.94c-.12,0-.17-.08-.13-.19"></path><path class="f" d="M116.65,42.23v-7.29c0-.1.05-.16.15-.16h.9c.1,0,.16.07.16.16v6.36h2.52c.1,0,.16.07.16.16v.76c0,.1-.07.16-.16.16h-3.59c-.1,0-.15-.07-.15-.16"></path><path class="f" d="M123.49,42.23v-6.36h-1.56c-.1,0-.15-.07-.15-.16v-.76c0-.1.05-.16.15-.16h4.32c.1,0,.16.07.16.16v.76c0,.1-.07.16-.16.16h-1.54v6.36c0,.1-.07.16-.16.16h-.9c-.1,0-.15-.07-.15-.16"></path><path class="f" d="M128.85,42.23v-7.29c0-.1.05-.16.15-.16h.9c.1,0,.16.07.16.16v3.16h3.15v-3.16c0-.1.07-.16.16-.16h.9c.1,0,.15.07.15.16v7.29c0,.1-.05.16-.15.16h-.9c-.1,0-.16-.07-.16-.16v-3.06h-3.15v3.06c0,.1-.07.16-.16.16h-.9c-.1,0-.15-.07-.15-.16"></path><path class="f" d="M141.43,40.93v-1.19h-1.18c-.1,0-.16-.05-.16-.15v-.6c0-.1.07-.15.16-.15h1.18v-1.19c0-.1.07-.15.16-.15h.6c.1,0,.15.06.15.15v1.19h1.18c.1,0,.16.06.16.15v.6c0,.1-.07.15-.16.15h-1.18v1.19c0,.1-.06.16-.15.16h-.6c-.1,0-.16-.06-.16-.16"></path><path class="f" d="M149.32,42.23v-7.29c0-.1.05-.16.15-.16h.9c.1,0,.16.07.16.16v3.16h3.15v-3.16c0-.1.07-.16.16-.16h.9c.1,0,.15.07.15.16v7.29c0,.1-.05.16-.15.16h-.9c-.1,0-.16-.07-.16-.16v-3.06h-3.15v3.06c0,.1-.07.16-.16.16h-.9c-.1,0-.15-.07-.15-.16"></path><path class="f" d="M161.26,41.33c1.52,0,2.66-1.16,2.66-2.72s-1.14-2.73-2.66-2.73-2.68,1.16-2.68,2.73,1.15,2.72,2.68,2.72M157.35,38.61c0-2.21,1.73-3.93,3.91-3.93s3.9,1.72,3.9,3.93-1.73,3.92-3.9,3.92-3.91-1.72-3.91-3.92"></path><path class="f" d="M167.6,42.23v-7.29c0-.1.05-.16.15-.16h1.1c.09,0,.15.03.18.11l2.5,6.13,2.51-6.13c.03-.08.09-.11.17-.11h1.1c.1,0,.16.07.16.16v7.29c0,.1-.06.16-.16.16h-.9c-.1,0-.15-.07-.15-.16v-5.24l-2.12,5.28c-.03.09-.1.13-.18.13h-.84c-.09,0-.16-.04-.2-.13l-2.11-5.28v5.24c0,.1-.07.16-.16.16h-.9c-.1,0-.15-.07-.15-.16"></path><path class="f" d="M178.13,42.23v-7.29c0-.1.05-.16.15-.16h3.78c.1,0,.15.07.15.16v.76c0,.1-.06.16-.15.16h-2.71v2.09h2.56c.1,0,.16.07.16.16v.77c0,.1-.07.15-.16.15h-2.56v2.26h2.71c.1,0,.16.07.16.16v.76c0,.1-.07.16-.16.16h-3.78c-.1,0-.15-.07-.15-.16"></path><path class="g" d="M79.19,37.34h-23.1c-.68,0-.86-.93-.24-1.19l21.34-8.84c.35-.14.51-.54.37-.89l-1.47-3.54c-.14-.35-.54-.51-.89-.37l-21.34,8.84c-.63.26-1.16-.53-.68-1.01l16.33-16.33c.26-.27.26-.69,0-.96l-2.71-2.71c-.26-.26-.69-.26-.96,0l-16.33,16.33c-.48.48-1.27-.05-1.01-.68l8.84-21.34c.14-.35-.02-.74-.37-.89l-3.54-1.47c-.35-.14-.74.02-.89.37l-8.84,21.34c-.26.63-1.19.44-1.19-.24V.68C42.53.3,42.23,0,41.85,0h-3.83c-.37,0-.68.3-.68.68v23.1c0,.68-.93.86-1.19.24L27.31,2.67c-.14-.35-.54-.51-.89-.37l-3.54,1.47c-.35.14-.51.54-.37.89l8.84,21.34c.26.63-.53,1.16-1.01.68L14.01,10.34c-.26-.26-.69-.26-.96,0l-2.71,2.71c-.26.27-.26.69,0,.96l16.33,16.33c.48.48-.05,1.27-.68,1.01L4.66,22.52c-.35-.14-.74.02-.89.37l-1.47,3.54c-.14.35.02.74.37.89l21.34,8.84c.63.26.44,1.19-.24,1.19H.68c-.38,0-.68.3-.68.68v3.83c0,.38.3.68.68.68h28.99c.33,0,.61-.27.61-.61v-8.46c0-.36.18-.7.48-.89l8.63-5.64c.35-.23.81-.23,1.17,0l8.55,5.64c.3.2.48.53.48.89v8.47c0,.34.27.61.61.61h28.99c.38,0,.68-.3.68-.68v-3.83c0-.38-.3-.68-.68-.68"></path></g></g></svg>