<?xml version="1.0" encoding="UTF-8"?> <svg xmlns="http://www.w3.org/2000/svg" width="174" height="58" viewBox="0 0 174 58" fill="none"><g clip-path="url(#clip0_2_22)"><path d="M119.236 0.806244L112.171 23.899L104.39 0.806244H94.6409L86.8608 23.899L79.7952 0.806244H67.9226L70.7194 9.10283C66.9111 3.59638 60.3896 0 52.6106 0C44.2169 0 37.2348 4.23768 33.5646 10.5273C31.7167 4.34611 25.7729 0.806244 17.4046 0.806244H0V41.0043H11.2172V29.5554H16.827C22.8717 29.5554 27.9432 27.7272 31.0114 24.1758C32.5241 34.2048 41.1777 41.8105 52.4923 41.8105C64.9693 41.8105 74.3258 32.4482 74.3258 20.907V20.7905C74.3258 20.4318 74.3166 20.0765 74.2992 19.7224L81.4738 41.0031H91.2618L99.4282 18.0246L107.537 41.0031H117.325L130.878 0.806244H119.236ZM23.0144 15.5251C23.0144 18.6901 20.5285 20.8159 16.595 20.8159H11.2184V10.179H16.5393C20.5297 10.179 23.0156 11.9622 23.0156 15.4132V15.5251H23.0144ZM62.8326 21.02C62.8326 26.8229 58.732 31.7619 52.6106 31.7619C46.4893 31.7619 42.2124 26.7064 42.2124 20.9081V20.7916C42.2124 14.9934 46.313 10.0498 52.4935 10.0498C58.674 10.0498 62.8326 15.0487 62.8326 20.9081V21.02ZM171.305 0.806244H136.269C134.78 0.806244 133.574 2.00581 133.574 3.48565V38.3237C133.574 39.8036 134.78 41.0031 136.269 41.0031H171.305C172.794 41.0031 174 39.8036 174 38.3237V3.48565C174 2.00581 172.794 0.806244 171.305 0.806244ZM169.554 17.87L168.206 20.1907L162.966 17.1826L162.046 17.7108L156.482 20.9047L162.046 24.0985L162.966 24.6268L168.206 21.6187L169.554 23.9393L165.662 26.1735L169.633 28.4527L168.285 30.7734L164.314 28.4942V32.9626H161.619V26.9463L160.699 26.4181L155.135 23.2242V30.6696L160.375 33.6777L159.027 35.9984L155.135 33.7642V38.3226H152.44V33.7642L148.548 35.9984L147.201 33.6777L152.44 30.6696V23.2242L146.876 26.4181L145.956 26.9463V32.9626H143.261V28.4942L139.29 30.7734L137.943 28.4527L141.913 26.1735L138.021 23.9393L139.369 21.6187L144.609 24.6268L145.529 24.0985L151.093 20.9047L145.529 17.7108L144.609 17.1826L139.369 20.1907L138.021 17.87L141.913 15.6358L137.943 13.3567L139.29 11.036L143.261 13.3151V8.84677H145.956V14.863L146.876 15.3913L152.44 18.5851V11.1398L147.201 8.13165L148.548 5.81096L152.44 8.04514V3.48565H155.135V8.04399L159.027 5.8098L160.375 8.1305L155.135 11.1386V18.584L160.699 15.3902L161.619 14.8619V8.84562H164.314V13.314L168.285 11.0348L169.633 13.3555L165.662 15.6347L169.554 17.8689V17.87ZM0 47.8752H4.09016C6.4786 47.8752 7.9228 49.2836 7.9228 51.3171V51.3459C7.9228 53.6504 6.12016 54.8442 3.87556 54.8442H2.20168V57.8304H0V47.8752ZM3.94748 52.8961C5.04832 52.8961 5.69212 52.2421 5.69212 51.3886V51.3597C5.69212 50.3782 5.0054 49.8522 3.90456 49.8522H2.20284V52.8961H3.94748ZM9.18488 47.8752H13.7622C15.0348 47.8752 16.0219 48.2305 16.6796 48.8845C17.2376 49.4393 17.538 50.2213 17.538 51.1602V51.189C17.538 52.7957 16.6657 53.8061 15.3932 54.2756L17.8385 57.8304H15.2644L13.1184 54.6447H11.3877V57.8304H9.18488V47.8752ZM13.6184 52.7104C14.6914 52.7104 15.3062 52.1418 15.3062 51.3021V51.2732C15.3062 50.3343 14.6485 49.851 13.5755 49.851H11.3866V52.7092H13.6172L13.6184 52.7104ZM18.5519 52.8811V52.8523C18.5519 50.0218 20.7976 47.7045 23.8867 47.7045C26.9758 47.7045 29.1926 49.9941 29.1926 52.8246V52.8534C29.1926 55.6839 26.9468 58.0011 23.8577 58.0011C20.7686 58.0011 18.5519 55.7116 18.5519 52.8811ZM26.89 52.8811V52.8523C26.89 51.1452 25.6314 49.723 23.8577 49.723C22.0841 49.723 20.8545 51.1164 20.8545 52.8234V52.8523C20.8545 54.5593 22.1131 55.9815 23.8867 55.9815C25.6604 55.9815 26.89 54.5882 26.89 52.8811ZM32.5716 49.8949H29.5255V47.8752H37.8206V49.8949H34.7745V57.8304H32.5716V49.8949ZM39.0444 47.8752H46.596V49.8234H41.2322V51.843H45.9522V53.7911H41.2322V55.8823H46.6668V57.8304H39.0433V47.8752H39.0444ZM47.669 52.8811V52.8523C47.669 50.0218 49.8139 47.7045 52.889 47.7045C54.7775 47.7045 55.9074 48.3308 56.8365 49.2409L55.4352 50.8476C54.6627 50.1509 53.8762 49.7242 52.8751 49.7242C51.1873 49.7242 49.9716 51.1175 49.9716 52.8246V52.8534C49.9716 54.5605 51.1583 55.9827 52.8751 55.9827C54.0189 55.9827 54.7207 55.5271 55.5072 54.8165L56.9084 56.2249C55.8784 57.3195 54.7346 58.0023 52.8032 58.0023C49.8568 58.0023 47.669 55.7416 47.669 52.8823V52.8811ZM60.7828 49.8949H57.7367V47.8752H66.0318V49.8949H62.9857V57.8304H60.7828V49.8949ZM71.1776 52.8811V52.8523C71.1776 50.0218 73.4234 47.7045 76.5124 47.7045C79.6015 47.7045 81.8183 49.9941 81.8183 52.8246V52.8534C81.8183 55.6839 79.5725 58.0011 76.4834 58.0011C73.3944 58.0011 71.1776 55.7116 71.1776 52.8811ZM79.5157 52.8811V52.8523C79.5157 51.1452 78.2571 49.723 76.4834 49.723C74.7098 49.723 73.4802 51.1164 73.4802 52.8234V52.8523C73.4802 54.5593 74.7388 55.9815 76.5124 55.9815C78.2861 55.9815 79.5157 54.5882 79.5157 52.8811ZM83.2799 53.5639V47.8752H85.4827V53.5074C85.4827 55.1291 86.2982 55.9677 87.6426 55.9677C88.9871 55.9677 89.8026 55.1568 89.8026 53.5778V47.8752H92.0054V53.4924C92.0054 56.5075 90.3037 57.9862 87.6148 57.9862C84.9259 57.9862 83.281 56.4925 83.281 53.5628L83.2799 53.5639ZM94.0354 47.8752H98.6128C99.8853 47.8752 100.872 48.2305 101.53 48.8845C102.088 49.4393 102.389 50.2213 102.389 51.1602V51.189C102.389 52.7957 101.516 53.8061 100.244 54.2756L102.689 57.8304H100.115L97.969 54.6447H96.2382V57.8304H94.0354V47.8752ZM98.4689 52.7104C99.5419 52.7104 100.157 52.1418 100.157 51.3021V51.2732C100.157 50.3343 99.499 49.851 98.426 49.851H96.2371V52.7092H98.4678L98.4689 52.7104ZM107.567 47.8752H109.926L112 54.6158L114.246 47.8464H116.135L118.38 54.6158L120.454 47.8752H122.757L119.338 57.902H117.422L115.162 51.3886L112.903 57.902H110.986L107.568 47.8752H107.567ZM123.954 47.8752H126.157V57.8304H123.954V47.8752ZM128.179 47.8752H130.21L134.901 54.0045V47.8752H137.075V57.8304H135.201L130.353 51.5016V57.8304H128.179V47.8752ZM141.279 49.8949H138.233V47.8752H146.528V49.8949H143.482V57.8304H141.279V49.8949ZM147.684 47.8752H155.236V49.8234H149.872V51.843H154.592V53.7911H149.872V55.8823H155.307V57.8304H147.683V47.8752H147.684ZM156.924 47.8752H161.501C162.774 47.8752 163.761 48.2305 164.418 48.8845C164.976 49.4393 165.277 50.2213 165.277 51.1602V51.189C165.277 52.7957 164.404 53.8061 163.132 54.2756L165.577 57.8304H163.003L160.857 54.6447H159.126V57.8304H156.924V47.8752ZM161.357 52.7104C162.43 52.7104 163.045 52.1418 163.045 51.3021V51.2732C163.045 50.3343 162.387 49.851 161.314 49.851H159.125V52.7092H161.356L161.357 52.7104ZM166.077 56.3794L167.379 54.8292C168.28 55.5686 169.224 56.038 170.368 56.038C171.269 56.038 171.812 55.6828 171.812 55.0991V55.0703C171.812 54.5155 171.469 54.2318 169.795 53.805C167.778 53.2929 166.476 52.7381 166.476 50.7611V50.7323C166.476 48.926 167.936 47.7311 169.981 47.7311C171.44 47.7311 172.683 48.1867 173.7 48.9964L172.556 50.6458C171.67 50.0344 170.796 49.6642 169.953 49.6642C169.109 49.6642 168.665 50.0483 168.665 50.5316V50.5604C168.665 51.2144 169.094 51.4278 170.825 51.8684C172.856 52.3944 174 53.1199 174 54.8546V54.8834C174 56.8604 172.484 57.97 170.324 57.97C168.808 57.97 167.278 57.444 166.076 56.3771L166.077 56.3794Z" fill="#0E1112"></path></g><defs><clipPath id="clip0_2_22"><rect width="174" height="58" fill="white"></rect></clipPath></defs></svg> 