<?xml version="1.0" encoding="utf-8"?>
<!-- Generator: Adobe Illustrator 24.0.1, SVG Export Plug-In . SVG Version: 6.00 Build 0)  -->
<svg version="1.1" id="Layer_1" xmlns="http://www.w3.org/2000/svg" xmlns:xlink="http://www.w3.org/1999/xlink" x="0px" y="0px"
	 viewBox="0 0 147 54.1" style="enable-background:new 0 0 147 54.1;" xml:space="preserve">
<style type="text/css">
	.st0{fill:#FFFFFF;}
</style>
<g>
	<path class="st0" d="M62.5,16c0,2.1,0,4.3,0,6.4c0,0.6,0,0.6,0.6,0.6c1.8,0,3.7,0,5.5,0c0.9,0,0.8,0.1,0.8-0.8c0-3.8,0-7.6,0-11.4
		c0-1.4,1.2-3.3,3.2-3.4c0.5,0,1.1,0,1.6,0c0.9,0.1,1.5,0.5,2.1,1.1c0.5,0.7,0.8,1.4,0.8,2.3c0,3.8,0,7.6,0,11.4
		c0,0.8,0,0.7,0.7,0.7c2,0,4.1,0,6.1,0c0.6,0,0.6,0,0.6-0.6c0-0.1,0-0.2,0-0.3c0-2.9,0-5.9,0-8.8c0-0.8,0-1.6,0-2.5
		c0.1-1.9,1.2-3.2,3.1-3.4c0.7-0.1,1.4,0,2.1,0.1c1.2,0.3,2.4,1.4,2.4,3c0,0.3,0,0.5,0,0.8c0,3.7,0,7.3,0,11c0,0.7,0,0.7,0.7,0.7
		c1.8,0,3.6,0,5.4,0c0.1,0,0.3,0,0.4,0c0.2,0,0.3-0.1,0.3-0.3c0-0.1,0-0.2,0-0.3c0-3.8,0-7.5,0-11.3c0-1-0.1-1.9-0.3-2.9
		C98.3,6,97.4,4,95.5,2.7c-2.9-2.1-6.1-2.8-9.6-2.3c-1.4,0.2-2.7,0.7-3.8,1.6c-0.7,0.5-1.3,0.5-1.9,0.1c-0.5-0.3-1-0.6-1.5-0.8
		c-2.4-1-5-1.2-7.6-0.7c-4.2,0.8-8.1,4-8.4,9.5C62.4,11.9,62.5,14,62.5,16z"/>
	<path class="st0" d="M48.1,23c2.1,0,4.2,0,6.3,0c0.5,0,0.5,0,0.5-0.5c0-0.2,0-0.3,0-0.5c0-3.8,0-7.6,0-11.5c0-1.1,0.5-1.9,1.3-2.4
		c1.4-0.9,2.8-1,4.3-0.1c0.2,0.1,0.4,0.3,0.7,0.4c0.5-2.4,1.6-4.5,3.2-6.2c0.2-0.3,0.1-0.4-0.1-0.6c-0.6-0.5-1.2-0.8-1.9-1.1
		c-1.8-0.7-3.6-0.8-5.5-0.5c-2.2,0.3-4.2,1.1-6,2.4c-2.1,1.6-3.3,3.8-3.4,6.4c-0.1,4.5,0,9,0,13.5C47.6,23,47.6,23,48.1,23z"/>
	<path class="st0" d="M99.4,31.5c0.7,0,1.4-0.1,2.1-0.4c0.5-0.2,0.6-0.6,0.3-1c-0.1-0.1-0.2-0.2-0.3-0.3c-1.1-0.8-2.3-1.5-3.8-1.2
		c-0.2,0-0.3,0-0.5,0c-1,0-1.9-0.1-2.9-0.2c-4-0.4-8-0.8-12.1-1.2c-4-0.3-7.9-0.5-11.9-0.6c-5.1-0.1-10.1,0-15.2,0.8
		c-3.5,0.5-6.9,1.4-10.2,2.7c-2,0.8-3.9,1.8-5.7,3.1c-0.7,0.5-0.7,0.8-0.1,1.3c0.1,0.1,0.2,0.1,0.2,0.2c0.7,0.6,1.6,0.9,2.5,1.1
		c0.6,0.1,1.2,0,1.7-0.4c2.1-1.4,4.3-2.5,6.7-3.4c4.4-1.6,9-2.3,13.6-2.6c4.2-0.3,8.4-0.2,12.6,0c1.7,0.1,3.4,0.2,5.2,0.3
		c2.3,0.2,4.5,0.4,6.8,0.6c2.4,0.2,4.9,0.4,7.3,0.8C97,31.4,98.2,31.5,99.4,31.5z"/>
	<path class="st0" d="M89.6,44.5c-0.3-1.5-1.2-2.4-2.7-2.7c-0.4-0.1-0.9-0.1-1.3-0.1c-1.1,0-2,0.4-2.8,1.2c-0.1,0.2-0.2,0.4-0.5,0.5
		c-0.7-1-1.6-1.6-2.9-1.7c-1.3-0.1-2.3,0.3-3.1,1.4c-0.1-0.3-0.1-0.6-0.1-0.8c0-0.2-0.1-0.3-0.3-0.3c-0.5,0-0.9,0-1.4,0
		c-0.2,0-0.3,0.1-0.3,0.3c0,0.1,0,0.3,0,0.4c0,3.5,0,6.9,0,10.4c0,0.1,0,0.3,0,0.4c0,0.2,0.1,0.3,0.3,0.3c0.5,0,1,0,1.4,0
		c0.2,0,0.3-0.1,0.3-0.3c0-0.2,0-0.3,0-0.5c0-1.9,0-3.8,0-5.8c0-0.7,0.1-1.3,0.3-1.9c0.1-0.5,0.4-0.9,0.7-1.2c1.2-1,2.9-0.6,3.4,0.8
		C81,45.5,81,46,81,46.6c0,2.1,0,4.2,0,6.3c0,0.2,0,0.3,0,0.5c0,0.3,0.1,0.4,0.4,0.4c0.4,0,0.9,0,1.3,0c0.2,0,0.4-0.1,0.4-0.3
		c0-0.2,0-0.3,0-0.5c0-2,0-3.9,0-5.9c0-0.6,0.1-1.2,0.3-1.8c0.3-1.2,1.3-1.8,2.5-1.7c0.9,0,1.5,0.5,1.8,1.4c0.1,0.3,0.2,0.6,0.2,1
		c0,0.8,0,1.6,0,2.4c0,1.6,0,3.3,0,4.9c0,0.6,0,0.6,0.6,0.6c0.3,0,0.6,0,0.9,0c0.6,0,0.6,0,0.6-0.6c0-2.4,0-4.8,0-7.3
		C89.8,45.5,89.7,45,89.6,44.5z"/>
	<path class="st0" d="M128.9,41.7c-3.5,0-6.3,2.7-6.3,6.1c0,3.1,2.3,6.3,6.2,6.3c3.9,0,6.3-3,6.3-6.1
		C135.1,44.6,132.4,41.8,128.9,41.7z M131.7,51.1c-0.8,0.8-1.8,1.1-2.9,1.2c-2.1,0-4-1.5-4.1-4.1c-0.1-1.5,0.4-2.8,1.6-3.8
		c2.1-1.6,5.7-0.9,6.5,2C133.2,48.2,133,49.8,131.7,51.1z"/>
	<path class="st0" d="M146.9,45.5c-0.1-1.1-0.3-2-1.2-2.8c-1.4-1.2-4.3-1.4-5.6,0.1c-0.1,0.2-0.3,0.3-0.6,0.4c0-0.3,0-0.6,0-0.9
		c0-0.2-0.1-0.3-0.3-0.3c-0.5,0-0.9,0-1.4,0c-0.2,0-0.3,0.1-0.3,0.3c0,0.1,0,0.3,0,0.4c0,3.5,0,6.9,0,10.4c0,0.1,0,0.3,0,0.4
		c0,0.2,0.1,0.3,0.3,0.3c0.5,0,0.9,0,1.4,0c0.3,0,0.4-0.1,0.4-0.4c0-0.1,0-0.3,0-0.4c0-1.9,0-3.8,0-5.7c0-0.7,0.1-1.5,0.4-2.2
		c0.2-0.6,0.6-1.1,1.2-1.4c0.8-0.3,1.6-0.3,2.3-0.1c0.5,0.1,0.8,0.5,1,0.9c0.2,0.4,0.3,0.8,0.3,1.2c0,0.8,0.1,1.7,0.1,2.5
		c0,1.7,0.1,3.3,0,5c0,0.4,0,0.5,0.5,0.5c0.3,0,0.7,0,1,0c0.5,0,0.5,0,0.5-0.5c0-1.6,0-3.1,0-4.7C147,47.5,147,46.5,146.9,45.5z"/>
	<path class="st0" d="M104.3,47.7c-0.6-0.4-1.3-0.7-2-1c-0.5-0.2-1.1-0.4-1.6-0.8c-0.3-0.2-0.5-0.5-0.6-0.9
		c-0.1-0.8,0.7-1.5,1.6-1.4c0.6,0.1,1,0.4,1.2,0.8c0.2,0.3,0.3,0.3,0.6,0.2c0.3-0.2,0.7-0.4,1-0.6c0.3-0.1,0.3-0.3,0.1-0.5
		c-0.7-1.1-1.7-1.8-3-1.8c-1.5,0-2.7,0.8-3.3,2c-0.5,1.2-0.4,2.7,1,3.6c0.6,0.4,1.2,0.7,1.8,1c0.5,0.2,1,0.4,1.4,0.7
		c0.9,0.5,1.1,1.5,0.5,2.4c-0.6,1-2.2,1.2-3.1,0.4c-0.3-0.3-0.5-0.6-0.7-0.9c-0.2-0.4-0.2-0.4-0.7-0.3c-0.3,0.1-0.6,0.2-0.9,0.4
		c-0.4,0.2-0.5,0.2-0.3,0.7c0.8,1.6,2.2,2.7,4.4,2.5c1.6-0.1,3.5-1.5,3.6-3.6C105.7,49.3,105.4,48.3,104.3,47.7z"/>
	<path class="st0" d="M114.6,47.8c-0.6-0.4-1.3-0.8-2.1-1.1c-0.5-0.2-1-0.4-1.5-0.7c-0.4-0.2-0.6-0.5-0.6-0.9
		c-0.1-0.8,0.7-1.5,1.5-1.4c0.5,0.1,1,0.3,1.3,0.8c0.2,0.3,0.4,0.3,0.6,0.2c0.3-0.2,0.6-0.4,1-0.5c0.3-0.1,0.3-0.3,0.1-0.5
		c-0.7-1.1-1.7-1.8-3-1.8c-1.6,0-2.9,0.9-3.3,2.2c-0.5,1.5-0.1,2.7,1.3,3.5c0.5,0.3,1.1,0.6,1.6,0.8c0.5,0.2,1,0.4,1.4,0.7
		c0.9,0.5,1,1.5,0.6,2.4c-0.6,1.1-2.6,1.2-3.4,0c-0.2-0.3-0.3-0.9-0.7-0.9c-0.4,0-0.8,0.3-1.1,0.4c0,0,0,0-0.1,0
		c-0.4,0.2-0.5,0.2-0.3,0.7c0.7,1.4,1.8,2.3,3.4,2.5c2.2,0.3,4.4-1.2,4.5-3.7C115.8,49.3,115.5,48.4,114.6,47.8z"/>
	<path class="st0" d="M94.3,42c-0.3,0-0.7,0-1,0c-0.2,0-0.3,0.1-0.3,0.3c0,0.2,0,0.3,0,0.5c0,3.2,0,6.4,0,9.6c0,0.4-0.2,1,0.1,1.3
		c0.3,0.3,0.9,0.1,1.3,0.1c0.6,0,0.7,0,0.7-0.7c0-1.7,0-3.5,0-5.2c0-1.7,0-3.5,0-5.2C95,42,95,42,94.3,42z"/>
	<path class="st0" d="M120.1,42.4c0-0.3-0.1-0.4-0.4-0.4c-0.4,0-0.9,0-1.3,0c-0.2,0-0.4,0.1-0.4,0.3c0,0.2,0,0.3,0,0.5
		c0,3.4,0,6.8,0,10.2c0,0.1,0,0.3,0,0.4c0,0.3,0.1,0.4,0.4,0.4c0.3,0,0.6,0,1,0c0.7,0,0.7,0,0.7-0.7c0-1.7,0-3.5,0-5.2
		c0-1.7,0-3.4,0-5.1C120.1,42.7,120.1,42.5,120.1,42.4z"/>
	<path class="st0" d="M59,45c-0.9,2-0.8,4,0.1,6c0.7,1.5,1.9,2.5,3.5,2.9c2.6,0.6,5-0.2,6.6-2.6c0.5-0.7,0.4-0.6-0.2-0.9
		c-0.1-0.1-0.2-0.1-0.3-0.2c-0.8-0.4-0.8-0.4-1.3,0.3c-0.5,0.7-1.1,1.3-1.9,1.5c-2.9,0.8-4.9-1.2-4.9-3.7c0.2-0.1,0.5-0.1,0.7-0.1
		c2.5,0,5.1,0,7.6,0c0.2,0,0.3,0,0.5,0c0.3,0,0.3-0.1,0.3-0.3c0-1.7-0.4-3.3-1.6-4.6C65.9,40.9,60.7,41,59,45z M67.5,46.5
		c-0.1,0-0.2,0-0.2,0c-2,0-4.1,0-6.1,0c-0.4,0-0.5-0.1-0.4-0.5c0.4-1.5,2-2.6,3.5-2.5c1.6,0.1,2.9,1.3,3.2,2.8
		C67.5,46.4,67.5,46.5,67.5,46.5z"/>
	<path class="st0" d="M13.8,41.7C11.2,41.5,9,42.8,8,45.1c-0.8,1.9-0.7,3.9,0.1,5.8c0.7,1.6,1.9,2.6,3.6,3c2.7,0.6,5.1-0.2,6.6-2.6
		c0.4-0.5,0.4-0.5-0.2-0.9c-0.1-0.1-0.3-0.1-0.4-0.2c-0.8-0.4-0.8-0.4-1.3,0.3c-0.2,0.3-0.5,0.6-0.8,0.9c-0.4,0.3-0.8,0.6-1.3,0.7
		c-2.3,0.7-4.6-0.9-4.8-3.3c0-0.5,0-0.5,0.5-0.5c1.4,0,2.7,0,4.1,0c1.4,0,2.8,0,4.1,0c0.4,0,0.4,0,0.4-0.4c0-0.6-0.1-1.2-0.2-1.8
		C18.1,43.6,16.3,42,13.8,41.7z M16.2,46.6c-1,0-1.9,0-2.9,0c-1,0-1.9,0-2.9,0c-0.6,0-0.6,0-0.4-0.6c0.5-1.5,1.9-2.5,3.4-2.4
		c1.5,0,2.8,1,3.2,2.5C16.7,46.5,16.7,46.6,16.2,46.6z"/>
	<path class="st0" d="M55.3,42.3c0-0.2,0-0.4-0.3-0.4c-0.5,0-1,0-1.5,0c-0.2,0-0.3,0.1-0.3,0.3c0,0.2,0,0.3,0,0.5c0,2.1,0,4.1,0,6.2
		c0,0.6-0.1,1.3-0.3,1.9c-0.3,0.8-0.8,1.3-1.6,1.5c-0.5,0.1-1.1,0.1-1.6,0c-0.8-0.2-1.3-0.6-1.6-1.4C48,50.2,48,49.7,48,49.1
		c0-1.5,0-2.9,0-4.4c0-0.8,0-1.6,0-2.3c0-0.3-0.1-0.4-0.4-0.4c-0.4,0-0.7,0-1.1,0c-0.5,0-0.5,0-0.5,0.5c0,2,0,4,0,6
		c0,0.6,0,1.3,0.1,1.9c0.1,1.1,0.6,2,1.5,2.7c0.9,0.7,2,1,3.1,1c2.5,0,4.6-1.6,4.6-4.3c0-1.2,0-2.3,0-3.5c0,0,0,0,0,0
		c0-0.6,0-1.3,0-1.9C55.3,43.7,55.3,43,55.3,42.3z"/>
	<path class="st0" d="M41,51.5c-1.6,1.2-4.6,1.1-6-1.5c-0.4-0.8-0.6-1.7-0.5-2.6c0.1-1.8,1.3-3.3,3-3.7c1.4-0.4,2.7-0.1,3.8,0.8
		c0.3,0.3,0.6,0.5,1,0.9c0-0.8,0-1.5,0-2.1c0-0.4-0.1-0.6-0.4-0.8c-1.4-0.8-2.8-1-4.3-0.7c-2.6,0.4-4.5,2.2-5,4.7
		C32,49.1,32.9,51.6,35,53c2.1,1.4,5,1.4,7.1,0c0.1-0.1,0.3-0.2,0.3-0.3c0-0.8,0-1.6,0-2.5C41.9,50.8,41.4,51.2,41,51.5z"/>
	<path class="st0" d="M28,47.4c-0.7-0.4-1.4-0.7-2-1c-0.4-0.2-0.8-0.3-1.1-0.6c-0.7-0.6-0.7-1.6,0.1-2c0.6-0.4,1.4-0.2,2,0.3
		c0.2,0.2,0.2,0.5,0.5,0.6c0.3,0,0.5-0.2,0.8-0.3c0.2-0.1,0.4-0.2,0.6-0.3c0.3-0.1,0.2-0.3,0.1-0.5c-1.1-2.1-4.1-2.4-5.7-0.7
		c-1.3,1.4-1,3.6,0.6,4.6c0.5,0.3,0.9,0.5,1.4,0.8c0.5,0.2,1.1,0.5,1.6,0.8c0.6,0.3,1,0.9,0.9,1.6c-0.1,0.7-0.5,1.3-1.2,1.6
		c-0.9,0.3-1.8,0.1-2.4-0.6c-0.2-0.3-0.4-0.6-0.5-0.9c-0.1-0.2-0.2-0.2-0.4-0.1c-0.4,0.2-0.8,0.3-1.2,0.5c-0.3,0.1-0.3,0.2-0.2,0.5
		c0.1,0.2,0.2,0.4,0.3,0.6c0.8,1.3,2,2,3.6,2.1c1,0,1.8-0.2,2.6-0.8c0.2-0.1,0.3-0.3,0.5-0.4C30.4,51.1,30.1,48.6,28,47.4z"/>
	<path class="st0" d="M3,42.3c-0.3,0.3-0.5,0.5-0.7,0.8C2.2,43.1,2.1,43,2,43c0-0.2,0-0.5,0-0.7C2,42.1,2,42,1.8,42
		c-0.5,0-1,0-1.5,0C0.1,42,0,42.1,0,42.3c0,0.2,0,0.3,0,0.5c0,2.7,0,5.3,0,8c0,0.9,0,1.8,0,2.7c0,0.3,0.1,0.4,0.4,0.4
		c0.4,0,0.7,0,1.1,0c0.6,0,0.6,0,0.6-0.6c0-0.1,0-0.3,0-0.4c0-2,0-4.1,0-6.1c0-0.7,0.1-1.3,0.4-1.9c0.3-0.7,0.9-1.1,1.7-1.1
		c0.4,0,0.8,0,1.1,0.2C5.5,44,5.6,44,5.7,43.8c0.2-0.4,0.4-0.9,0.7-1.3c0.1-0.2,0.1-0.3-0.1-0.4C5.4,41.6,3.8,41.5,3,42.3z"/>
</g>
</svg>
