<?xml version="1.0" encoding="utf-8"?>
<!-- Generator: Adobe Illustrator 19.1.0, SVG Export Plug-In . SVG Version: 6.00 Build 0)  -->
<svg version="1.1" id="Layer_1" xmlns="http://www.w3.org/2000/svg" xmlns:xlink="http://www.w3.org/1999/xlink" x="0px" y="0px"
	 width="196px" height="32px" viewBox="71 12 196 32" style="enable-background:new 71 12 196 32;" xml:space="preserve">
<style type="text/css">
	.st0{fill:#56266E;}
</style>
<g>
	<path class="st0" d="M260,13.6V13h2.5v0.6h-0.9v2.5h-0.7v-2.5H260z"/>
	<path class="st0" d="M263.8,13l0.7,2.1l0,0l0.7-2.1h1v3.1h-0.6v-2.2l0,0l-0.8,2.2h-0.5l-0.8-2.2l0,0v2.2h-0.6V13H263.8z"/>
</g>
<g>
	<path class="st0" d="M97.9,44c0,0-1.6-3.4-8.7-4.6c0,0-4-0.6-6.6-3.9c0,0-1.5-2.5,3.7-6.5c0,0,2.1,4.2,7.6,5s7.1,3.2,7.9,4.5
		L97.9,44z"/>
	<path class="st0" d="M82.1,37c-0.4,0.6-0.6,1.3-0.6,2.1c0,2.3,1.8,4.2,4,4.2c1.6,0,3-0.9,3.7-2.2l0,0C89.2,41.1,84.2,40.5,82.1,37z
		"/>
	<path class="st0" d="M75.4,12c0,0,1.6,3.4,8.8,4.4c0,0,4,0.5,6.6,3.8c0,0,1.5,2.5-3.6,6.5c0,0-2.2-4.1-7.7-4.9
		c-5.6-0.7-7.2-3-8-4.3L75.4,12z"/>
	<path class="st0" d="M91.3,18.7c0.4-0.6,0.6-1.3,0.6-2.1c0-2.3-1.9-4.2-4.1-4.2c-1.6,0-2.9,0.9-3.6,2.3l0,0
		C84.2,14.8,89.3,15.2,91.3,18.7z"/>
	<path class="st0" d="M103,16.8c0,0-3.4,1.5-4.7,8.8c0,0-0.7,4.1-4,6.5c0,0-2.5,1.4-6.3-4c0,0,4.1-2,5.1-7.6s3.3-7.1,4.6-7.9
		L103,16.8z"/>
	<path class="st0" d="M95.7,32.8c0.6,0.4,1.3,0.6,2.1,0.7c2.3,0.1,4.1-1.7,4.2-4c0.1-1.6-0.8-3.1-2.1-3.8l0,0
		C99.9,25.6,99.3,30.8,95.7,32.8z"/>
	<path class="st0" d="M71,39.5c0,0,3.3-1.6,4.4-9c0,0,0.5-4.1,3.7-6.7c0,0,2.5-1.5,6.4,3.8c0,0-4.1,2.1-4.8,7.8
		c-0.8,5.6-3,7.2-4.3,8.1L71,39.5z"/>
	<path class="st0" d="M77.8,23.3c-0.6-0.4-1.3-0.6-2.1-0.6c-2.3,0-4.1,1.8-4.1,4.1c0,1.6,0.9,3,2.3,3.7l0,0
		C73.7,30.6,74.2,25.4,77.8,23.3z"/>
</g>
<polygon class="st0" points="112,13 125.7,43 128.6,43 134.6,29.3 134.6,29.3 141,43 144,43 157,13 152.7,13 142.5,37.6 136.5,25.1 
	142.2,13 138.5,13 134.6,20.8 134.6,20.8 131.3,13 127.5,13 133,25.1 127.1,37.6 116.3,13 "/>
<path class="st0" d="M178.9,13v3.2l0,0h-15.5l0,0V26l0,0h12.5l0,0V29h-12.5v10.4l0,0h17.1l0,0L192.2,13h5l13.1,30h-4.8l-3.9-9.1l0,0
	h-13.9l0,0l-3.6,9.1l0,0h-24.8V13H178.9z M188.9,30.7h11.4l-5.7-13.2L188.9,30.7z"/>
<polygon class="st0" points="203.3,13 217.1,43 219.6,43 233.3,13 228.6,13 218.5,36.2 208,13 "/>
<polygon class="st0" points="235.1,13 235.1,43 255.1,43 255.1,39.4 239.5,39.4 239.5,29 252.2,29 252.2,25.9 239.5,25.9 
	239.5,16.2 254.7,16.2 254.7,13 "/>
</svg>
